<svg width="72" height="24" viewBox="0 0 72 24" fill="none" xmlns="http://www.w3.org/2000/svg">
<g clip-path="url(#clip0_867_4062)">
<path d="M23 21.3112C23 22.2439 22.2439 23 21.3112 23H19.9202C19.377 23 18.867 22.7387 18.5496 22.2979L17.6948 21.1105C17.0208 20.1744 15.6276 20.1743 14.9537 21.1104L14.0986 22.298C13.7812 22.7388 13.2712 23 12.7281 23H11.4236C10.8805 23 10.3705 22.7388 10.0531 22.298L9.19798 21.1103C8.52404 20.1742 7.13088 20.1742 6.45694 21.1103L5.60181 22.298C5.28444 22.7388 4.77443 23 4.23128 23H2.68881C1.7561 23 1 22.2439 1 21.3112V2.68881C1 1.7561 1.7561 1 2.68881 1H8.47968C9.02284 1 9.53284 1.26124 9.85021 1.70203L10.7053 2.88971C11.3793 3.82575 12.7724 3.82575 13.4464 2.88971L14.3015 1.70203C14.6189 1.26124 15.1289 1 15.672 1H21.3112C22.2439 1 23 1.7561 23 2.68881V21.3112Z" fill="white"/>
<path d="M50 19.9202C50 19.377 50.2613 18.867 50.7021 18.5496L51.8895 17.6948C52.8256 17.0208 52.8257 15.6276 51.8896 14.9537L50.702 14.0986C50.2612 13.7812 50 13.2712 50 12.7281L50 11.4236C50 10.8805 50.2612 10.3705 50.702 10.0531L51.8896 9.19807C52.8257 8.5241 52.8256 7.13088 51.8895 6.45696L50.7021 5.60213C50.2613 5.28477 50 4.77474 50 4.23155L50 2.68881C50 1.7561 50.7561 1 51.6888 1L70.3112 1C71.2439 1 72 1.75611 72 2.68881L72 21.3112C72 22.2439 71.2439 23 70.3112 23L51.6888 23C50.7561 23 50 22.2439 50 21.3112L50 19.9202Z" fill="white"/>
<path d="M47.6211 21.3112C47.6211 22.2439 46.865 23 45.9323 23H44.5413C43.9981 23 43.4881 22.7387 43.1707 22.2979L42.3159 21.1105C41.6419 20.1744 40.2487 20.1743 39.5748 21.1104L38.7197 22.298C38.4023 22.7388 37.8923 23 37.3492 23H36.0447C35.5016 23 34.9916 22.7388 34.6742 22.298L33.8192 21.1104C33.1452 20.1743 31.752 20.1744 31.0781 21.1105L30.2232 22.2979C29.9059 22.7387 29.3958 23 28.8526 23H27.3099C26.3772 23 25.6211 22.2439 25.6211 21.3112V2.68881C25.6211 1.7561 26.3772 1 27.3099 1H33.1008C33.6439 1 34.1539 1.26124 34.4713 1.70203L35.3264 2.88971C36.0004 3.82575 37.3935 3.82575 38.0675 2.88971L38.9226 1.70203C39.24 1.26124 39.75 1 40.2931 1H45.9323C46.865 1 47.6211 1.7561 47.6211 2.68881V21.3112Z" fill="white"/>
<path d="M31.9159 8.55197C32.0284 8.26685 32.4319 8.26686 32.5443 8.55197L33.2749 10.4044C33.3093 10.4915 33.3782 10.5604 33.4652 10.5947L35.3177 11.3253C35.6028 11.4378 35.6028 11.8413 35.3177 11.9538L33.4652 12.6844C33.3782 12.7187 33.3093 12.7876 33.2749 12.8746L32.5443 14.7271C32.4319 15.0122 32.0284 15.0122 31.9159 14.7271L31.1853 12.8746C31.151 12.7876 31.0821 12.7187 30.995 12.6844L29.1426 11.9538C28.8574 11.8413 28.8574 11.4378 29.1426 11.3253L30.995 10.5947C31.0821 10.5604 31.151 10.4915 31.1853 10.4044L31.9159 8.55197Z" fill="black"/>
<path d="M41.119 8.55197C41.2315 8.26685 41.635 8.26686 41.7475 8.55197L42.4781 10.4044C42.5124 10.4915 42.5813 10.5604 42.6683 10.5947L44.5208 11.3253C44.8059 11.4378 44.8059 11.8413 44.5208 11.9538L42.6683 12.6844C42.5813 12.7187 42.5124 12.7876 42.4781 12.8746L41.7475 14.7271C41.635 15.0122 41.2315 15.0122 41.119 14.7271L40.3884 12.8746C40.3541 12.7876 40.2852 12.7187 40.1981 12.6844L38.3457 11.9538C38.0606 11.8413 38.0606 11.4378 38.3457 11.3253L40.1981 10.5947C40.2852 10.5604 40.3541 10.4915 40.3884 10.4044L41.119 8.55197Z" fill="black"/>
</g>
<defs>
<clipPath id="clip0_867_4062">
<rect width="72" height="24" fill="white"/>
</clipPath>
</defs>
</svg>
