<svg width="88" height="88" viewBox="0 0 88 88" fill="none" xmlns="http://www.w3.org/2000/svg">
<g clip-path="url(#clip0_922_17437)">
<rect width="88" height="88" rx="16" fill="black"/>
<g filter="url(#filter0_ii_922_17437)">
<path d="M78 93C78 102.389 70.3888 110 61 110H27C17.6112 110 10 102.389 10 93V26.4248C10 20.6674 14.6674 16 20.4248 16C23.2618 16 25.9762 17.1562 27.9418 19.2018L31.1071 22.4959C37.7966 29.4576 48.9339 29.4576 55.6234 22.4959L58.5259 19.4753C60.6594 17.2549 63.6056 16 66.6848 16C72.934 16 78 21.066 78 27.3152V93Z" fill="url(#paint0_linear_922_17437)"/>
</g>
<g filter="url(#filter1_ii_922_17437)">
<path d="M28.5697 35.3587C28.9027 34.5146 30.0973 34.5146 30.4303 35.3587L32.5933 40.8433C32.695 41.101 32.899 41.305 33.1567 41.4067L38.6413 43.5697C39.4854 43.9027 39.4854 45.0973 38.6413 45.4303L33.1567 47.5933C32.899 47.695 32.695 47.899 32.5933 48.1567L30.4303 53.6413C30.0973 54.4854 28.9027 54.4854 28.5697 53.6413L26.4067 48.1567C26.305 47.899 26.101 47.695 25.8433 47.5933L20.3587 45.4303C19.5146 45.0973 19.5146 43.9027 20.3587 43.5697L25.8433 41.4067C26.101 41.305 26.305 41.101 26.4067 40.8433L28.5697 35.3587Z" fill="black"/>
</g>
<g filter="url(#filter2_ii_922_17437)">
<path d="M57.5697 35.3587C57.9027 34.5146 59.0973 34.5146 59.4303 35.3587L61.5933 40.8433C61.695 41.101 61.899 41.305 62.1567 41.4067L67.6413 43.5697C68.4854 43.9027 68.4854 45.0973 67.6413 45.4303L62.1567 47.5933C61.899 47.695 61.695 47.899 61.5933 48.1567L59.4303 53.6413C59.0973 54.4854 57.9027 54.4854 57.5697 53.6413L55.4067 48.1567C55.305 47.899 55.101 47.695 54.8433 47.5933L49.3587 45.4303C48.5146 45.0973 48.5146 43.9027 49.3587 43.5697L54.8433 41.4067C55.101 41.305 55.305 41.101 55.4067 40.8433L57.5697 35.3587Z" fill="black"/>
</g>
</g>
<defs>
<filter id="filter0_ii_922_17437" x="4" y="8" width="77" height="105" filterUnits="userSpaceOnUse" color-interpolation-filters="sRGB">
<feFlood flood-opacity="0" result="BackgroundImageFix"/>
<feBlend mode="normal" in="SourceGraphic" in2="BackgroundImageFix" result="shape"/>
<feColorMatrix in="SourceAlpha" type="matrix" values="0 0 0 0 0 0 0 0 0 0 0 0 0 0 0 0 0 0 127 0" result="hardAlpha"/>
<feOffset dx="-6" dy="-16"/>
<feGaussianBlur stdDeviation="4"/>
<feComposite in2="hardAlpha" operator="arithmetic" k2="-1" k3="1"/>
<feColorMatrix type="matrix" values="0 0 0 0 0 0 0 0 0 0 0 0 0 0 0 0 0 0 0.2 0"/>
<feBlend mode="normal" in2="shape" result="effect1_innerShadow_922_17437"/>
<feColorMatrix in="SourceAlpha" type="matrix" values="0 0 0 0 0 0 0 0 0 0 0 0 0 0 0 0 0 0 127 0" result="hardAlpha"/>
<feOffset dx="6" dy="3"/>
<feGaussianBlur stdDeviation="1.5"/>
<feComposite in2="hardAlpha" operator="arithmetic" k2="-1" k3="1"/>
<feColorMatrix type="matrix" values="0 0 0 0 1 0 0 0 0 1 0 0 0 0 1 0 0 0 0.3 0"/>
<feBlend mode="normal" in2="effect1_innerShadow_922_17437" result="effect2_innerShadow_922_17437"/>
</filter>
<filter id="filter1_ii_922_17437" x="18.7256" y="33.7256" width="22.5488" height="22.5488" filterUnits="userSpaceOnUse" color-interpolation-filters="sRGB">
<feFlood flood-opacity="0" result="BackgroundImageFix"/>
<feBlend mode="normal" in="SourceGraphic" in2="BackgroundImageFix" result="shape"/>
<feColorMatrix in="SourceAlpha" type="matrix" values="0 0 0 0 0 0 0 0 0 0 0 0 0 0 0 0 0 0 127 0" result="hardAlpha"/>
<feOffset dx="-1" dy="-1"/>
<feGaussianBlur stdDeviation="1"/>
<feComposite in2="hardAlpha" operator="arithmetic" k2="-1" k3="1"/>
<feColorMatrix type="matrix" values="0 0 0 0 0 0 0 0 0 0 0 0 0 0 0 0 0 0 0.2 0"/>
<feBlend mode="normal" in2="shape" result="effect1_innerShadow_922_17437"/>
<feColorMatrix in="SourceAlpha" type="matrix" values="0 0 0 0 0 0 0 0 0 0 0 0 0 0 0 0 0 0 127 0" result="hardAlpha"/>
<feOffset dx="2" dy="2"/>
<feGaussianBlur stdDeviation="2"/>
<feComposite in2="hardAlpha" operator="arithmetic" k2="-1" k3="1"/>
<feColorMatrix type="matrix" values="0 0 0 0 1 0 0 0 0 1 0 0 0 0 1 0 0 0 0.25 0"/>
<feBlend mode="normal" in2="effect1_innerShadow_922_17437" result="effect2_innerShadow_922_17437"/>
</filter>
<filter id="filter2_ii_922_17437" x="47.7256" y="33.7256" width="22.5488" height="22.5488" filterUnits="userSpaceOnUse" color-interpolation-filters="sRGB">
<feFlood flood-opacity="0" result="BackgroundImageFix"/>
<feBlend mode="normal" in="SourceGraphic" in2="BackgroundImageFix" result="shape"/>
<feColorMatrix in="SourceAlpha" type="matrix" values="0 0 0 0 0 0 0 0 0 0 0 0 0 0 0 0 0 0 127 0" result="hardAlpha"/>
<feOffset dx="-1" dy="-1"/>
<feGaussianBlur stdDeviation="1"/>
<feComposite in2="hardAlpha" operator="arithmetic" k2="-1" k3="1"/>
<feColorMatrix type="matrix" values="0 0 0 0 0 0 0 0 0 0 0 0 0 0 0 0 0 0 0.2 0"/>
<feBlend mode="normal" in2="shape" result="effect1_innerShadow_922_17437"/>
<feColorMatrix in="SourceAlpha" type="matrix" values="0 0 0 0 0 0 0 0 0 0 0 0 0 0 0 0 0 0 127 0" result="hardAlpha"/>
<feOffset dx="2" dy="2"/>
<feGaussianBlur stdDeviation="2"/>
<feComposite in2="hardAlpha" operator="arithmetic" k2="-1" k3="1"/>
<feColorMatrix type="matrix" values="0 0 0 0 1 0 0 0 0 1 0 0 0 0 1 0 0 0 0.25 0"/>
<feBlend mode="normal" in2="effect1_innerShadow_922_17437" result="effect2_innerShadow_922_17437"/>
</filter>
<linearGradient id="paint0_linear_922_17437" x1="18.4777" y1="16" x2="55.1086" y2="113.736" gradientUnits="userSpaceOnUse">
<stop stop-color="#FB8DED"/>
<stop offset="1" stop-color="#FAFEFD"/>
</linearGradient>
<clipPath id="clip0_922_17437">
<rect width="88" height="88" rx="16" fill="white"/>
</clipPath>
</defs>
</svg>
