<svg width="72" height="24" viewBox="0 0 72 24" fill="none" xmlns="http://www.w3.org/2000/svg">
<g clip-path="url(#clip0_896_16293)">
<path d="M23 21.3112C23 22.2439 22.2439 23 21.3112 23H19.9202C19.377 23 18.867 22.7387 18.5496 22.2979L17.6948 21.1105C17.0208 20.1744 15.6276 20.1743 14.9537 21.1104L14.0986 22.298C13.7812 22.7388 13.2712 23 12.7281 23H11.4236C10.8805 23 10.3705 22.7388 10.0531 22.298L9.19798 21.1103C8.52404 20.1742 7.13088 20.1742 6.45694 21.1103L5.60181 22.298C5.28444 22.7388 4.77443 23 4.23128 23H2.68881C1.7561 23 1 22.2439 1 21.3112V2.68881C1 1.7561 1.7561 1 2.68881 1H8.47968C9.02284 1 9.53284 1.26124 9.85021 1.70203L10.7053 2.88971C11.3793 3.82575 12.7724 3.82575 13.4464 2.88971L14.3015 1.70203C14.6189 1.26124 15.1289 1 15.672 1H21.3112C22.2439 1 23 1.7561 23 2.68881V21.3112Z" fill="white"/>
<path d="M50 19.9202C50 19.377 50.2613 18.867 50.7021 18.5496L51.8895 17.6948C52.8256 17.0208 52.8257 15.6276 51.8896 14.9537L50.702 14.0986C50.2612 13.7812 50 13.2712 50 12.7281L50 11.4236C50 10.8805 50.2612 10.3705 50.702 10.0531L51.8896 9.19807C52.8257 8.5241 52.8256 7.13088 51.8895 6.45696L50.7021 5.60213C50.2613 5.28477 50 4.77474 50 4.23155L50 2.68881C50 1.7561 50.7561 1 51.6888 1L70.3112 1C71.2439 1 72 1.75611 72 2.68881L72 21.3112C72 22.2439 71.2439 23 70.3112 23L51.6888 23C50.7561 23 50 22.2439 50 21.3112L50 19.9202Z" fill="white"/>
<path d="M47.6207 21.3112C47.6207 22.2439 46.8646 23 45.9319 23H44.5409C43.9977 23 43.4877 22.7387 43.1703 22.2979L42.3155 21.1105C41.6416 20.1744 40.2484 20.1743 39.5744 21.1104L38.7193 22.298C38.402 22.7388 37.892 23 37.3488 23H36.0444C35.5012 23 34.9912 22.7388 34.6738 22.298L33.8188 21.1104C33.1448 20.1743 31.7516 20.1744 31.0777 21.1105L30.2229 22.2979C29.9055 22.7387 29.3955 23 28.8523 23H27.3095C26.3768 23 25.6207 22.2439 25.6207 21.3112V2.68881C25.6207 1.7561 26.3768 1 27.3095 1H33.1004C33.6436 1 34.1536 1.26124 34.4709 1.70203L35.3261 2.88971C36 3.82575 37.3932 3.82575 38.0671 2.88971L38.9222 1.70203C39.2396 1.26124 39.7496 1 40.2928 1H45.9319C46.8646 1 47.6207 1.7561 47.6207 2.68881V21.3112Z" fill="white"/>
<path d="M31.9154 8.55197C32.0278 8.26685 32.4313 8.26686 32.5438 8.55197L33.2744 10.4044C33.3087 10.4915 33.3776 10.5604 33.4647 10.5947L35.3171 11.3253C35.6022 11.4378 35.6022 11.8413 35.3171 11.9538L33.4647 12.6844C33.3776 12.7187 33.3087 12.7876 33.2744 12.8746L32.5438 14.7271C32.4313 15.0122 32.0278 15.0122 31.9154 14.7271L31.1847 12.8746C31.1504 12.7876 31.0815 12.7187 30.9945 12.6844L29.142 11.9538C28.8569 11.8413 28.8569 11.4378 29.142 11.3253L30.9945 10.5947C31.0815 10.5604 31.1504 10.4915 31.1847 10.4044L31.9154 8.55197Z" fill="black"/>
<path d="M41.1184 8.55197C41.2308 8.26685 41.6343 8.26686 41.7468 8.55197L42.4774 10.4044C42.5117 10.4915 42.5806 10.5604 42.6677 10.5947L44.5202 11.3253C44.8053 11.4378 44.8053 11.8413 44.5202 11.9538L42.6677 12.6844C42.5806 12.7187 42.5117 12.7876 42.4774 12.8746L41.7468 14.7271C41.6343 15.0122 41.2308 15.0122 41.1184 14.7271L40.3878 12.8746C40.3534 12.7876 40.2845 12.7187 40.1975 12.6844L38.345 11.9538C38.0599 11.8413 38.0599 11.4378 38.345 11.3253L40.1975 10.5947C40.2845 10.5604 40.3534 10.4915 40.3878 10.4044L41.1184 8.55197Z" fill="black"/>
</g>
<defs>
<clipPath id="clip0_896_16293">
<rect width="72" height="24" fill="white"/>
</clipPath>
</defs>
</svg>
