<svg width="72" height="24" viewBox="0 0 72 24" fill="none" xmlns="http://www.w3.org/2000/svg">
<g clip-path="url(#clip0_896_16293)">
<path d="M23 21.3112C23 22.2439 22.2439 23 21.3112 23H19.9202C19.377 23 18.867 22.7387 18.5496 22.2979L17.6948 21.1105C17.0208 20.1744 15.6276 20.1743 14.9537 21.1104L14.0986 22.298C13.7812 22.7388 13.2712 23 12.7281 23H11.4236C10.8805 23 10.3705 22.7388 10.0531 22.298L9.19798 21.1103C8.52404 20.1742 7.13088 20.1742 6.45694 21.1103L5.60181 22.298C5.28444 22.7388 4.77443 23 4.23128 23H2.68881C1.7561 23 1 22.2439 1 21.3112V2.68881C1 1.7561 1.7561 1 2.68881 1H8.47968C9.02284 1 9.53284 1.26124 9.85021 1.70203L10.7053 2.88971C11.3793 3.82575 12.7724 3.82575 13.4464 2.88971L14.3015 1.70203C14.6189 1.26124 15.1289 1 15.672 1H21.3112C22.2439 1 23 1.7561 23 2.68881V21.3112Z" fill="white"/>
<path d="M50 19.9202C50 19.377 50.2613 18.867 50.7021 18.5496L51.8895 17.6948C52.8256 17.0208 52.8257 15.6276 51.8896 14.9537L50.702 14.0986C50.2612 13.7812 50 13.2712 50 12.7281L50 11.4236C50 10.8805 50.2612 10.3705 50.702 10.0531L51.8896 9.19807C52.8257 8.5241 52.8256 7.13088 51.8895 6.45696L50.7021 5.60213C50.2613 5.28477 50 4.77474 50 4.23155L50 2.68881C50 1.7561 50.7561 1 51.6888 1L70.3112 1C71.2439 1 72 1.75611 72 2.68881L72 21.3112C72 22.2439 71.2439 23 70.3112 23L51.6888 23C50.7561 23 50 22.2439 50 21.3112L50 19.9202Z" fill="white"/>
<path d="M33.0999 1C33.643 1 34.1536 1.26136 34.4709 1.70215L35.3254 2.88965C35.9994 3.82568 37.3927 3.82568 38.0667 2.88965L38.9221 1.70215C39.2395 1.26143 39.7492 1.00005 40.2922 1H45.9319C46.8643 1.00018 47.6202 1.75604 47.6204 2.68848V21.3115C47.6202 22.244 46.8643 22.9998 45.9319 23H44.5403C43.9972 22.9999 43.4875 22.7386 43.1702 22.2979L42.3147 21.1104C41.6408 20.1746 40.2484 20.1746 39.5745 21.1104L38.719 22.2979C38.4017 22.7385 37.8919 22.9999 37.3489 23H36.0442C35.501 23 34.9905 22.7386 34.6731 22.2979L33.8186 21.1104C33.1447 20.1743 31.7513 20.1744 31.0774 21.1104L30.2229 22.2979C29.9055 22.7387 29.395 23 28.8518 23H27.3088C26.3764 22.9998 25.6205 22.244 25.6204 21.3115V2.68848C25.6205 1.75604 26.3764 1.00018 27.3088 1H33.0999ZM32.5432 8.55176C32.4306 8.26703 32.0278 8.26697 31.9153 8.55176L31.1848 10.4043C31.1505 10.4913 31.0814 10.5604 30.9944 10.5947L29.1418 11.3252C28.8567 11.4376 28.8567 11.8417 29.1418 11.9541L30.9944 12.6846C31.0814 12.7189 31.1505 12.788 31.1848 12.875L31.9153 14.7275C32.0279 15.0121 32.4305 15.012 32.5432 14.7275L33.2747 12.875C33.3089 12.7881 33.3773 12.719 33.4641 12.6846L35.3167 11.9541C35.6018 11.8417 35.6018 11.4376 35.3167 11.3252L33.4641 10.5947C33.3772 10.5604 33.3089 10.4912 33.2747 10.4043L32.5432 8.55176ZM41.7463 8.55176C41.6337 8.26703 41.2309 8.26697 41.1184 8.55176L40.3879 10.4043C40.3536 10.4913 40.2845 10.5604 40.1975 10.5947L38.345 11.3252C38.0599 11.4376 38.0599 11.8417 38.345 11.9541L40.1975 12.6846C40.2845 12.7189 40.3536 12.788 40.3879 12.875L41.1184 14.7275C41.231 15.0121 41.6337 15.012 41.7463 14.7275L42.4778 12.875C42.5121 12.7881 42.5804 12.719 42.6672 12.6846L44.5198 11.9541C44.8049 11.8417 44.8049 11.4376 44.5198 11.3252L42.6672 10.5947C42.5804 10.5604 42.5121 10.4912 42.4778 10.4043L41.7463 8.55176Z" fill="white"/>
</g>
<defs>
<clipPath id="clip0_896_16293">
<rect width="72" height="24" fill="white"/>
</clipPath>
</defs>
</svg>
