<svg width="328" height="218" viewBox="0 0 328 218" fill="none" xmlns="http://www.w3.org/2000/svg">
<g clip-path="url(#clip0_896_17058)">
<rect x="0.5" width="327" height="218" rx="10" fill="#1F2021"/>
<path d="M-2.99878 98.009L253.143 170.159V184.009L-2.99878 152.443V98.009Z" fill="url(#paint0_linear_896_17058)" stroke="white" stroke-width="0.794851"/>
<path d="M253.143 205.461V184.033L-2.55942 153.009L-2.99878 214.097V276.009L253.143 205.461Z" fill="url(#paint1_linear_896_17058)" stroke="white" stroke-width="0.794851"/>
<path d="M253.143 186.848V183.622L-2.99878 152.009V212.009L253.143 186.848Z" fill="url(#paint2_linear_896_17058)" stroke="white" stroke-width="0.794851"/>
<g filter="url(#filter0_d_896_17058)">
<path d="M329.493 241.597C329.493 246.865 325.223 251.135 319.955 251.135H307.035C303.968 251.135 301.087 249.66 299.295 247.17L290.96 235.594C287.154 230.307 279.285 230.307 275.479 235.594L267.144 247.17C265.351 249.66 262.471 251.135 259.403 251.135H248.142C245.074 251.135 242.194 249.66 240.401 247.17L232.066 235.594C228.259 230.307 220.391 230.307 216.585 235.594L208.25 247.17C206.458 249.66 203.577 251.135 200.51 251.135H186.538C181.27 251.135 177 246.865 177 241.597V108.18C177 102.912 181.27 98.6418 186.538 98.6418H229.956C233.024 98.6418 235.904 100.117 237.697 102.607L246.032 114.183C249.838 119.47 257.707 119.47 261.513 114.183L269.847 102.607C271.64 100.117 274.52 98.6418 277.588 98.6418H319.955C325.223 98.6418 329.493 102.912 329.493 108.18V241.597Z" fill="white"/>
</g>
<path d="M217.21 152.557C218.224 149.986 221.862 149.986 222.876 152.557L227.558 164.428C227.867 165.213 228.489 165.834 229.273 166.144L241.145 170.826C243.716 171.84 243.716 175.478 241.145 176.492L229.273 181.174C228.489 181.483 227.867 182.105 227.558 182.889L222.876 194.761C221.862 197.332 218.224 197.332 217.21 194.761L212.528 182.889C212.218 182.105 211.597 181.483 210.812 181.174L198.941 176.492C196.37 175.478 196.37 171.84 198.941 170.826L210.812 166.144C211.597 165.834 212.218 165.213 212.528 164.428L217.21 152.557Z" fill="black"/>
<path d="M284.226 152.557C285.239 149.986 288.878 149.986 289.891 152.557L294.573 164.428C294.883 165.213 295.504 165.834 296.289 166.144L308.161 170.826C310.731 171.84 310.731 175.478 308.161 176.492L296.289 181.174C295.504 181.483 294.883 182.105 294.573 182.889L289.891 194.761C288.878 197.332 285.239 197.332 284.226 194.761L279.544 182.889C279.234 182.105 278.613 181.483 277.828 181.174L265.956 176.492C263.386 175.478 263.386 171.84 265.956 170.826L277.828 166.144C278.613 165.834 279.234 165.213 279.544 164.428L284.226 152.557Z" fill="black"/>
<path d="M36.326 39.5773V43.2238H44.6464V45.6602H25.1381V43.2238H33.3674V39.5691C29.5552 39.1381 26.8453 36.9751 26.8536 33.7597C26.8453 30.2541 30.2762 27.9254 34.8508 27.9254C39.4503 27.9254 42.8895 30.2541 42.8895 33.7597C42.8895 36.9834 40.163 39.1464 36.326 39.5773ZM29.7956 33.7597C29.7956 36.0138 31.8757 37.2735 34.8508 37.2818C37.8591 37.2735 39.9309 36.0138 39.9392 33.7597C39.9309 31.6298 37.8591 30.3122 34.8508 30.3122C31.8757 30.3122 29.7956 31.6298 29.7956 33.7597ZM50.6588 31.1492H62.5262V33.5193H47.7002V27.0718H50.6588V31.1492ZM45.2554 37.3066V34.9448H64.7637V37.3066H45.2554ZM62.4267 44.268H50.5262V45.6105H63.098V47.9227H47.5096V42.1133H59.4682V40.895H47.4847V38.5994H62.4267V44.268ZM80.3645 26.8149H83.3396V48.2127H80.3645V26.8149ZM72.3175 28.2486C75.7153 28.2486 78.2264 30.4282 78.2429 33.4862C78.2264 36.5525 75.7153 38.7238 72.3175 38.7238C68.9612 38.7238 66.3921 36.5525 66.4004 33.4862C66.3921 30.4282 68.9612 28.2486 72.3175 28.2486ZM72.3175 30.8343C70.6352 30.8343 69.3672 31.8204 69.3672 33.4862C69.3672 35.1768 70.6435 36.1381 72.3175 36.1381C74.0247 36.1381 75.3175 35.1768 75.3258 33.4862C75.3175 31.8204 74.033 30.8343 72.3175 30.8343ZM65.8534 43.8453L65.5137 41.4171C69.3175 41.4171 74.5882 41.3674 79.1545 40.7293L79.3783 42.884C74.6545 43.8039 69.591 43.8453 65.8534 43.8453ZM101.684 38.7403V43.2901H110.004V45.7265H90.4959V43.2901H98.7252V38.7403H92.7915V28.3315H107.725V30.7099H95.7832V36.3785H107.874V38.7403H101.684ZM127.461 34.9448H130.61V37.3812H127.461V48.163H124.47V26.8149H127.461V34.9448ZM120.89 31.1989V40.4889C121.76 40.4227 122.613 40.3398 123.442 40.232L123.591 42.3785C119.224 43.1575 114.343 43.2403 110.68 43.2486L110.356 40.8122C111.11 40.8122 111.923 40.8122 112.776 40.8039V31.1989H110.895V28.7873H122.796V31.1989H120.89ZM118.014 31.1989H115.677V40.7541C116.448 40.7376 117.227 40.7044 118.014 40.6713V31.1989ZM145.631 26.8481H148.631V38.8978H145.631V26.8481ZM131.858 28.0994H142.275V37.6547H131.858V28.0994ZM139.316 30.4862H134.8V35.2928H139.316V30.4862ZM134.336 39.9503H148.631V47.9227H134.336V39.9503ZM145.697 42.2707H137.286V45.5276H145.697V42.2707ZM160.635 36.2541C155.945 36.2541 152.862 34.5718 152.87 31.837C152.862 29.1188 155.945 27.4696 160.635 27.4696C165.309 27.4696 168.384 29.1188 168.392 31.837C168.384 34.5718 165.309 36.2541 160.635 36.2541ZM160.635 29.8398C157.677 29.8481 155.961 30.5525 155.978 31.837C155.961 33.1713 157.677 33.8343 160.635 33.826C163.585 33.8343 165.309 33.1713 165.309 31.837C165.309 30.5525 163.585 29.8481 160.635 29.8398ZM150.922 40.1077V37.7293H170.381V40.1077H150.922ZM153.268 41.5414H156.268V45.3785H168.16V47.7901H153.268V41.5414ZM177.885 40.9199H174.786V40.6547C174.802 37.7376 175.59 36.8425 176.982 35.9641C178.001 35.3177 178.78 34.5884 178.78 33.4945C178.78 32.3343 177.869 31.5718 176.725 31.5718C175.639 31.5718 174.628 32.3011 174.57 33.6685H171.239C171.305 30.3785 173.758 28.7956 176.75 28.7956C180.023 28.7956 182.335 30.4945 182.335 33.3867C182.335 35.3177 181.341 36.5442 179.791 37.4724C178.482 38.2597 177.893 39.0221 177.885 40.6547V40.9199ZM176.402 46.2072C175.316 46.2072 174.421 45.3287 174.438 44.2431C174.421 43.1657 175.316 42.2873 176.402 42.2873C177.454 42.2873 178.366 43.1657 178.374 44.2431C178.366 45.3287 177.454 46.2072 176.402 46.2072Z" fill="white"/>
<path d="M31.2873 67.2003V69.4675H36.2086V70.7148H24.9109V69.4675H29.779V67.2003C27.5311 66.9779 25.9406 65.7403 25.9454 63.884C25.9406 61.8826 27.8985 60.558 30.5331 60.5532C33.1823 60.558 35.1402 61.8826 35.1402 63.884C35.1402 65.7452 33.5497 66.9779 31.2873 67.2003ZM27.4344 63.884C27.4344 65.2279 28.7203 66.0207 30.5331 66.0256C32.3605 66.0207 33.6464 65.2279 33.6464 63.884C33.6464 62.5981 32.3605 61.7762 30.5331 61.7811C28.7203 61.7762 27.4344 62.5981 27.4344 63.884ZM39.3546 62.5159H46.3884V63.7341H37.856V60.0262H39.3546V62.5159ZM36.396 65.8999V64.6913H47.6937V65.8999H36.396ZM46.3062 69.922H39.2821V70.8791H46.7123V72.0635H37.7496V68.8149H44.8028V67.9448H37.7303V66.77H46.3062V69.922ZM56.6843 59.8619H58.2023V72.2376H56.6843V59.8619ZM51.9177 60.7127C53.8756 60.7127 55.3065 61.9454 55.3114 63.7003C55.3065 65.4599 53.8756 66.6878 51.9177 66.6878C49.9744 66.6878 48.5192 65.4599 48.5241 63.7003C48.5192 61.9454 49.9744 60.7127 51.9177 60.7127ZM51.9177 62.0325C50.8349 62.0325 50.0227 62.6754 50.0324 63.7003C50.0227 64.7348 50.8349 65.3681 51.9177 65.3681C53.0103 65.3681 53.8273 64.7348 53.8273 63.7003C53.8273 62.6754 53.0151 62.0325 51.9177 62.0325ZM48.1518 69.6464L47.9681 68.3943C50.1967 68.3992 53.2762 68.375 55.9495 67.9931L56.0655 69.0953C53.3003 69.6271 50.3369 69.6464 48.1518 69.6464ZM68.5084 66.683V69.5062H73.4297V70.7535H62.132V69.5062H67.0001V66.683H63.5001V60.7756H72.0664V61.9938H65.0229V65.4744H72.1631V66.683H68.5084ZM83.3098 64.6478H85.2145V65.8902H83.3098V72.2086H81.787V59.8619H83.3098V64.6478ZM79.5004 62.2983V67.8626C80.0563 67.8191 80.6074 67.7659 81.1344 67.703L81.2069 68.8004C78.6544 69.2403 75.7877 69.2887 73.6413 69.2983L73.4721 68.0414C73.9362 68.0414 74.4389 68.0414 74.961 68.0366V62.2983H73.7815V61.0656H80.6848V62.2983H79.5004ZM78.0356 62.2983H76.4355V68.0124C76.9624 67.9979 77.499 67.9786 78.0356 67.9544V62.2983ZM93.8957 59.8715H95.4185V68.6892H93.8957V59.8715ZM85.7645 60.8819H91.7155V66.7604H85.7645V60.8819ZM87.2583 65.5518H90.212V62.1001H87.2583V65.5518ZM88.7763 67.8577V70.6568H95.7666V71.8847H87.2438V67.8577H88.7763ZM103.051 64.4496C102.5 65.6001 101.47 66.4993 100.015 66.9247L99.2854 65.7258C101.234 65.1989 102.278 63.8356 102.278 62.395V62.3515H99.6915V61.1381H102.278V59.8087H103.81V61.1381H106.372V62.3515H103.791V62.395C103.791 63.7148 104.792 65.0104 106.74 65.5276L106.058 66.6927C104.622 66.3108 103.607 65.4938 103.051 64.4496ZM109.104 59.8619V62.7286H110.83V63.9855H109.104V66.9441H107.576V59.8619H109.104ZM109.278 68.7231H106.01C106.29 69.7528 107.678 70.7148 109.795 71.0097L109.244 72.1796C107.31 71.8992 105.85 71.0725 105.14 69.9558C104.429 71.0677 102.974 71.8798 101.055 72.1506L100.499 71C102.631 70.7099 103.999 69.7769 104.284 68.7231H101.011V67.5193H109.278V68.7231ZM120.454 68.0173L118.916 67.8529C119.4 65.4551 119.405 63.7003 119.409 62.2113H112.027V60.9883H120.937V62.1775C120.932 63.7148 120.932 65.4358 120.454 68.0173ZM116.518 65.078V69.3757H122.112V70.6229H110.853V69.3757H115.01V65.078H116.518ZM133.839 59.8715H135.362V68.9358H133.839V59.8715ZM129.034 64.9427C128.478 66.1609 127.439 67.1181 125.969 67.5677L125.229 66.3785C127.206 65.779 128.241 64.2949 128.241 62.7383V62.5739H125.611V61.375H128.241V59.9247H129.783V61.375H132.398V62.5739H129.769V62.7383C129.764 64.203 130.827 65.6001 132.8 66.1561L132.07 67.355C130.629 66.9344 129.599 66.0594 129.034 64.9427ZM128.72 68.1188V70.7438H135.71V71.9765H127.187V68.1188H128.72ZM146.127 65.8805H147.833V67.1181H142.926V72.2279H141.394V67.1181H136.574V65.8805H144.589C144.928 64.1982 144.942 62.9413 144.942 61.8343H137.908V60.6112H146.455V61.7134C146.455 62.8688 146.455 64.1354 146.127 65.8805ZM157.273 72.2086V59.8619H158.733V72.2086H157.273ZM153.556 64.5124H154.75V60.0746H156.195V71.6188H154.75V65.7355H153.566C153.425 68.1526 152.391 69.6271 150.868 69.6271C149.249 69.6271 148.195 67.9302 148.199 65.1989C148.195 62.482 149.249 60.7949 150.868 60.7997C152.362 60.7949 153.382 62.2017 153.556 64.5124ZM150.868 68.172C151.68 68.1768 152.173 67.1326 152.173 65.1989C152.173 63.2749 151.68 62.2258 150.868 62.2307C150.075 62.2258 149.597 63.2749 149.606 65.1989C149.597 67.1326 150.075 68.1768 150.868 68.172ZM168.792 72.2086V59.8619H170.228V72.2086H168.792ZM164.466 64.7251H166.182V60.1616H167.613V71.6333H166.182V65.9385H163.968C163.247 67.355 162.087 68.5925 160.342 69.6077L159.477 68.5297C162.034 67.0117 163.209 65.0829 163.436 62.5981H160.105V61.3653H164.949C164.944 62.5546 164.799 63.6809 164.466 64.7251ZM183.324 64.759L181.825 64.6091C182.13 63.4102 182.149 62.5449 182.154 61.6457H175.105V60.442H183.672V61.4669C183.672 62.4482 183.672 63.4876 183.324 64.759ZM179.669 63.2169V65.4551H185.035V66.6878H173.819V65.4551H178.165V63.2169H179.669ZM179.36 67.587C182.047 67.5919 183.739 68.4378 183.749 69.9026C183.739 71.3432 182.047 72.2037 179.36 72.1989C176.696 72.2037 174.989 71.3432 174.989 69.9026C174.989 68.4378 176.696 67.5919 179.36 67.587ZM179.36 71.029C181.153 71.029 182.231 70.6326 182.236 69.9026C182.231 69.1533 181.153 68.7327 179.36 68.7279C177.576 68.7327 176.498 69.1533 176.507 69.9026C176.498 70.6326 177.576 71.029 179.36 71.029ZM190.898 65.7597C188.268 65.7645 186.46 64.7155 186.465 63.0622C186.46 61.3798 188.268 60.3018 190.898 60.3018C193.532 60.3018 195.35 61.3798 195.35 63.0622C195.35 64.7155 193.532 65.7645 190.898 65.7597ZM190.898 61.5249C189.153 61.5249 188.021 62.0905 188.031 63.0622C188.021 64.0048 189.153 64.5559 190.898 64.5559C192.653 64.5559 193.779 64.0048 193.784 63.0622C193.779 62.0905 192.653 61.5249 190.898 61.5249ZM185.28 66.7845H196.578V68.0173H193.823V72.2086H192.285V68.0173H189.539V72.2086H187.983V68.0173H185.28V66.7845ZM206.473 64.7831H208.377V66.0352H206.473V72.2086H204.969V59.8619H206.473V64.7831ZM199.647 60.0359H201.165V61.7521H204.017V62.98H196.727V61.7521H199.647V60.0359ZM200.415 63.7776C202.194 63.7776 203.514 64.9814 203.524 66.6878C203.514 68.3943 202.194 69.5932 200.415 69.5932C198.612 69.5932 197.288 68.3943 197.297 66.6878C197.288 64.9814 198.612 63.7776 200.415 63.7776ZM200.415 68.3363C201.368 68.346 202.059 67.703 202.069 66.6878C202.059 65.6872 201.368 65.0249 200.415 65.0249C199.449 65.0249 198.743 65.6872 198.752 66.6878C198.743 67.703 199.449 68.346 200.415 68.3363ZM217.972 64.6671H219.877V65.9434H217.972V72.2086H216.45V59.8619H217.972V64.6671ZM212.727 62.3273V63.3667C212.717 65.2811 213.863 67.4517 215.811 68.3605L214.961 69.5594C213.568 68.9116 212.539 67.5822 211.983 66.0352C211.422 67.732 210.344 69.1823 208.927 69.8688L208.033 68.6699C210.001 67.7417 211.2 65.4261 211.204 63.3667V62.3273H208.512V61.0801H215.309V62.3273H212.727Z" fill="#E4E6EB"/>
</g>
<defs>
<filter id="filter0_d_896_17058" x="73.4637" y="-4.89443" width="359.565" height="359.566" filterUnits="userSpaceOnUse" color-interpolation-filters="sRGB">
<feFlood flood-opacity="0" result="BackgroundImageFix"/>
<feColorMatrix in="SourceAlpha" type="matrix" values="0 0 0 0 0 0 0 0 0 0 0 0 0 0 0 0 0 0 127 0" result="hardAlpha"/>
<feOffset/>
<feGaussianBlur stdDeviation="51.7681"/>
<feComposite in2="hardAlpha" operator="out"/>
<feColorMatrix type="matrix" values="0 0 0 0 0.886275 0 0 0 0 0.117647 0 0 0 0 0.258824 0 0 0 1 0"/>
<feBlend mode="normal" in2="BackgroundImageFix" result="effect1_dropShadow_896_17058"/>
<feBlend mode="normal" in="SourceGraphic" in2="effect1_dropShadow_896_17058" result="shape"/>
</filter>
<linearGradient id="paint0_linear_896_17058" x1="287.412" y1="183.687" x2="20.2347" y2="94.0056" gradientUnits="userSpaceOnUse">
<stop stop-color="#93A4F2"/>
<stop offset="0.275553" stop-color="#FF6B69"/>
<stop offset="0.706731" stop-color="#FFA3FE"/>
<stop offset="1" stop-color="#FEFDC6"/>
</linearGradient>
<linearGradient id="paint1_linear_896_17058" x1="196.906" y1="203.542" x2="-8.85705" y2="363.867" gradientUnits="userSpaceOnUse">
<stop stop-color="#93A4F2"/>
<stop offset="0.416003" stop-color="#FF7CFE"/>
<stop offset="0.729622" stop-color="#FF6462"/>
<stop offset="1" stop-color="#FDAD7C"/>
</linearGradient>
<linearGradient id="paint2_linear_896_17058" x1="253.143" y1="182.009" x2="-2.99878" y2="182.009" gradientUnits="userSpaceOnUse">
<stop stop-color="#99A2FF"/>
<stop offset="0.4375" stop-color="#FFFFC1"/>
<stop offset="0.754808" stop-color="#FEB082"/>
<stop offset="1" stop-color="#FE6651"/>
</linearGradient>
<clipPath id="clip0_896_17058">
<rect x="0.5" width="327" height="218" rx="10" fill="white"/>
</clipPath>
</defs>
</svg>
