<svg width="327" height="218" viewBox="0 0 327 218" fill="none" xmlns="http://www.w3.org/2000/svg">
<g clip-path="url(#clip0_896_15857)">
<rect width="327" height="218" rx="10" fill="#1F2021"/>
<path d="M-3.5 98.009L252.641 170.159V184.009L-3.5 152.443V98.009Z" fill="url(#paint0_linear_896_15857)" stroke="white" stroke-width="0.794851"/>
<path d="M252.641 205.461V184.033L-3.06064 153.009L-3.5 214.097V276.009L252.641 205.461Z" fill="url(#paint1_linear_896_15857)" stroke="white" stroke-width="0.794851"/>
<path d="M252.641 186.848V183.622L-3.5 152.009V212.009L252.641 186.848Z" fill="url(#paint2_linear_896_15857)" stroke="white" stroke-width="0.794851"/>
<g filter="url(#filter0_d_896_15857)">
<path d="M328.993 241.597C328.993 246.865 324.723 251.135 319.455 251.135H306.535C303.468 251.135 300.587 249.66 298.795 247.17L290.46 235.594C286.654 230.307 278.785 230.307 274.979 235.594L266.644 247.17C264.851 249.66 261.971 251.135 258.903 251.135H247.642C244.574 251.135 241.694 249.66 239.901 247.17L231.566 235.594C227.759 230.307 219.891 230.307 216.085 235.594L207.75 247.17C205.958 249.66 203.077 251.135 200.01 251.135H186.038C180.77 251.135 176.5 246.865 176.5 241.597V108.18C176.5 102.912 180.77 98.6418 186.038 98.6418H229.456C232.524 98.6418 235.404 100.117 237.197 102.607L245.532 114.183C249.338 119.47 257.207 119.47 261.013 114.183L269.347 102.607C271.14 100.117 274.02 98.6418 277.088 98.6418H319.455C324.723 98.6418 328.993 102.912 328.993 108.18V241.597Z" fill="white"/>
</g>
<path d="M216.71 152.557C217.724 149.986 221.362 149.986 222.375 152.557L227.058 164.428C227.367 165.213 227.988 165.834 228.773 166.144L240.645 170.826C243.215 171.84 243.215 175.478 240.645 176.492L228.773 181.174C227.988 181.483 227.367 182.105 227.058 182.889L222.375 194.761C221.362 197.332 217.724 197.332 216.71 194.761L212.028 182.889C211.718 182.105 211.097 181.483 210.312 181.174L198.44 176.492C195.87 175.478 195.87 171.84 198.44 170.826L210.312 166.144C211.097 165.834 211.718 165.213 212.028 164.428L216.71 152.557Z" fill="black"/>
<path d="M283.726 152.557C284.74 149.986 288.378 149.986 289.391 152.557L294.074 164.428C294.383 165.213 295.004 165.834 295.789 166.144L307.661 170.826C310.231 171.84 310.231 175.478 307.661 176.492L295.789 181.174C295.004 181.483 294.383 182.105 294.074 182.889L289.391 194.761C288.378 197.332 284.74 197.332 283.726 194.761L279.044 182.889C278.734 182.105 278.113 181.483 277.328 181.174L265.456 176.492C262.886 175.478 262.886 171.84 265.456 170.826L277.328 166.144C278.113 165.834 278.734 165.213 279.044 164.428L283.726 152.557Z" fill="black"/>
<path d="M35.826 39.5773V43.2238H44.1464V45.6602H24.6381V43.2238H32.8674V39.5691C29.0552 39.1381 26.3453 36.9751 26.3536 33.7597C26.3453 30.2541 29.7762 27.9254 34.3508 27.9254C38.9503 27.9254 42.3895 30.2541 42.3895 33.7597C42.3895 36.9834 39.663 39.1464 35.826 39.5773ZM29.2956 33.7597C29.2956 36.0138 31.3757 37.2735 34.3508 37.2818C37.3591 37.2735 39.4309 36.0138 39.4392 33.7597C39.4309 31.6298 37.3591 30.3122 34.3508 30.3122C31.3757 30.3122 29.2956 31.6298 29.2956 33.7597ZM50.1588 31.1492H62.0262V33.5193H47.2002V27.0718H50.1588V31.1492ZM44.7554 37.3066V34.9448H64.2637V37.3066H44.7554ZM61.9267 44.268H50.0262V45.6105H62.598V47.9227H47.0096V42.1133H58.9682V40.895H46.9847V38.5994H61.9267V44.268ZM79.8645 26.8149H82.8396V48.2127H79.8645V26.8149ZM71.8175 28.2486C75.2153 28.2486 77.7264 30.4282 77.7429 33.4862C77.7264 36.5525 75.2153 38.7238 71.8175 38.7238C68.4612 38.7238 65.8921 36.5525 65.9004 33.4862C65.8921 30.4282 68.4612 28.2486 71.8175 28.2486ZM71.8175 30.8343C70.1352 30.8343 68.8672 31.8204 68.8672 33.4862C68.8672 35.1768 70.1435 36.1381 71.8175 36.1381C73.5247 36.1381 74.8175 35.1768 74.8258 33.4862C74.8175 31.8204 73.533 30.8343 71.8175 30.8343ZM65.3534 43.8453L65.0137 41.4171C68.8175 41.4171 74.0882 41.3674 78.6545 40.7293L78.8783 42.884C74.1545 43.8039 69.091 43.8453 65.3534 43.8453ZM101.184 38.7403V43.2901H109.504V45.7265H89.9959V43.2901H98.2252V38.7403H92.2915V28.3315H107.225V30.7099H95.2832V36.3785H107.374V38.7403H101.184ZM126.961 34.9448H130.11V37.3812H126.961V48.163H123.97V26.8149H126.961V34.9448ZM120.39 31.1989V40.4889C121.26 40.4227 122.113 40.3398 122.942 40.232L123.091 42.3785C118.724 43.1575 113.843 43.2403 110.18 43.2486L109.856 40.8122C110.61 40.8122 111.423 40.8122 112.276 40.8039V31.1989H110.395V28.7873H122.296V31.1989H120.39ZM117.514 31.1989H115.177V40.7541C115.948 40.7376 116.727 40.7044 117.514 40.6713V31.1989ZM145.131 26.8481H148.131V38.8978H145.131V26.8481ZM131.358 28.0994H141.775V37.6547H131.358V28.0994ZM138.816 30.4862H134.3V35.2928H138.816V30.4862ZM133.836 39.9503H148.131V47.9227H133.836V39.9503ZM145.197 42.2707H136.786V45.5276H145.197V42.2707ZM160.135 36.2541C155.445 36.2541 152.362 34.5718 152.37 31.837C152.362 29.1188 155.445 27.4696 160.135 27.4696C164.809 27.4696 167.884 29.1188 167.892 31.837C167.884 34.5718 164.809 36.2541 160.135 36.2541ZM160.135 29.8398C157.177 29.8481 155.461 30.5525 155.478 31.837C155.461 33.1713 157.177 33.8343 160.135 33.826C163.085 33.8343 164.809 33.1713 164.809 31.837C164.809 30.5525 163.085 29.8481 160.135 29.8398ZM150.422 40.1077V37.7293H169.881V40.1077H150.422ZM152.768 41.5414H155.768V45.3785H167.66V47.7901H152.768V41.5414ZM177.385 40.9199H174.286V40.6547C174.302 37.7376 175.09 36.8425 176.482 35.9641C177.501 35.3177 178.28 34.5884 178.28 33.4945C178.28 32.3343 177.369 31.5718 176.225 31.5718C175.139 31.5718 174.128 32.3011 174.07 33.6685H170.739C170.805 30.3785 173.258 28.7956 176.25 28.7956C179.523 28.7956 181.835 30.4945 181.835 33.3867C181.835 35.3177 180.841 36.5442 179.291 37.4724C177.982 38.2597 177.393 39.0221 177.385 40.6547V40.9199ZM175.902 46.2072C174.816 46.2072 173.921 45.3287 173.938 44.2431C173.921 43.1657 174.816 42.2873 175.902 42.2873C176.954 42.2873 177.866 43.1657 177.874 44.2431C177.866 45.3287 176.954 46.2072 175.902 46.2072Z" fill="white"/>
<path d="M30.7873 67.2003V69.4675H35.7086V70.7148H24.4109V69.4675H29.279V67.2003C27.0311 66.9779 25.4406 65.7403 25.4454 63.884C25.4406 61.8826 27.3985 60.558 30.0331 60.5532C32.6823 60.558 34.6402 61.8826 34.6402 63.884C34.6402 65.7452 33.0497 66.9779 30.7873 67.2003ZM26.9344 63.884C26.9344 65.2279 28.2203 66.0207 30.0331 66.0256C31.8605 66.0207 33.1464 65.2279 33.1464 63.884C33.1464 62.5981 31.8605 61.7762 30.0331 61.7811C28.2203 61.7762 26.9344 62.5981 26.9344 63.884ZM38.8546 62.5159H45.8884V63.7341H37.356V60.0262H38.8546V62.5159ZM35.896 65.8999V64.6913H47.1937V65.8999H35.896ZM45.8062 69.922H38.7821V70.8791H46.2123V72.0635H37.2496V68.8149H44.3028V67.9448H37.2303V66.77H45.8062V69.922ZM56.1843 59.8619H57.7023V72.2376H56.1843V59.8619ZM51.4177 60.7127C53.3756 60.7127 54.8065 61.9454 54.8114 63.7003C54.8065 65.4599 53.3756 66.6878 51.4177 66.6878C49.4744 66.6878 48.0192 65.4599 48.0241 63.7003C48.0192 61.9454 49.4744 60.7127 51.4177 60.7127ZM51.4177 62.0325C50.3349 62.0325 49.5227 62.6754 49.5324 63.7003C49.5227 64.7348 50.3349 65.3681 51.4177 65.3681C52.5103 65.3681 53.3273 64.7348 53.3273 63.7003C53.3273 62.6754 52.5151 62.0325 51.4177 62.0325ZM47.6518 69.6464L47.4681 68.3943C49.6967 68.3992 52.7762 68.375 55.4495 67.9931L55.5655 69.0953C52.8003 69.6271 49.8369 69.6464 47.6518 69.6464ZM68.0084 66.683V69.5062H72.9297V70.7535H61.632V69.5062H66.5001V66.683H63.0001V60.7756H71.5664V61.9938H64.5229V65.4744H71.6631V66.683H68.0084ZM82.8098 64.6478H84.7145V65.8902H82.8098V72.2086H81.287V59.8619H82.8098V64.6478ZM79.0004 62.2983V67.8626C79.5563 67.8191 80.1074 67.7659 80.6344 67.703L80.7069 68.8004C78.1544 69.2403 75.2877 69.2887 73.1413 69.2983L72.9721 68.0414C73.4362 68.0414 73.9389 68.0414 74.461 68.0366V62.2983H73.2815V61.0656H80.1848V62.2983H79.0004ZM77.5356 62.2983H75.9355V68.0124C76.4624 67.9979 76.999 67.9786 77.5356 67.9544V62.2983ZM93.3957 59.8715H94.9185V68.6892H93.3957V59.8715ZM85.2645 60.8819H91.2155V66.7604H85.2645V60.8819ZM86.7583 65.5518H89.712V62.1001H86.7583V65.5518ZM88.2763 67.8577V70.6568H95.2666V71.8847H86.7438V67.8577H88.2763ZM102.551 64.4496C102 65.6001 100.97 66.4993 99.5154 66.9247L98.7854 65.7258C100.734 65.1989 101.778 63.8356 101.778 62.395V62.3515H99.1915V61.1381H101.778V59.8087H103.31V61.1381H105.872V62.3515H103.291V62.395C103.291 63.7148 104.292 65.0104 106.24 65.5276L105.558 66.6927C104.122 66.3108 103.107 65.4938 102.551 64.4496ZM108.604 59.8619V62.7286H110.33V63.9855H108.604V66.9441H107.076V59.8619H108.604ZM108.778 68.7231H105.51C105.79 69.7528 107.178 70.7148 109.295 71.0097L108.744 72.1796C106.81 71.8992 105.35 71.0725 104.64 69.9558C103.929 71.0677 102.474 71.8798 100.555 72.1506L99.9988 71C102.131 70.7099 103.499 69.7769 103.784 68.7231H100.511V67.5193H108.778V68.7231ZM119.954 68.0173L118.416 67.8529C118.9 65.4551 118.905 63.7003 118.909 62.2113H111.527V60.9883H120.437V62.1775C120.432 63.7148 120.432 65.4358 119.954 68.0173ZM116.018 65.078V69.3757H121.612V70.6229H110.353V69.3757H114.51V65.078H116.018ZM133.339 59.8715H134.862V68.9358H133.339V59.8715ZM128.534 64.9427C127.978 66.1609 126.939 67.1181 125.469 67.5677L124.729 66.3785C126.706 65.779 127.741 64.2949 127.741 62.7383V62.5739H125.111V61.375H127.741V59.9247H129.283V61.375H131.898V62.5739H129.269V62.7383C129.264 64.203 130.327 65.6001 132.3 66.1561L131.57 67.355C130.129 66.9344 129.099 66.0594 128.534 64.9427ZM128.22 68.1188V70.7438H135.21V71.9765H126.687V68.1188H128.22ZM145.627 65.8805H147.333V67.1181H142.426V72.2279H140.894V67.1181H136.074V65.8805H144.089C144.428 64.1982 144.442 62.9413 144.442 61.8343H137.408V60.6112H145.955V61.7134C145.955 62.8688 145.955 64.1354 145.627 65.8805ZM156.773 72.2086V59.8619H158.233V72.2086H156.773ZM153.056 64.5124H154.25V60.0746H155.695V71.6188H154.25V65.7355H153.066C152.925 68.1526 151.891 69.6271 150.368 69.6271C148.749 69.6271 147.695 67.9302 147.699 65.1989C147.695 62.482 148.749 60.7949 150.368 60.7997C151.862 60.7949 152.882 62.2017 153.056 64.5124ZM150.368 68.172C151.18 68.1768 151.673 67.1326 151.673 65.1989C151.673 63.2749 151.18 62.2258 150.368 62.2307C149.575 62.2258 149.097 63.2749 149.106 65.1989C149.097 67.1326 149.575 68.1768 150.368 68.172ZM168.292 72.2086V59.8619H169.728V72.2086H168.292ZM163.966 64.7251H165.682V60.1616H167.113V71.6333H165.682V65.9385H163.468C162.747 67.355 161.587 68.5925 159.842 69.6077L158.977 68.5297C161.534 67.0117 162.709 65.0829 162.936 62.5981H159.605V61.3653H164.449C164.444 62.5546 164.299 63.6809 163.966 64.7251ZM182.824 64.759L181.325 64.6091C181.63 63.4102 181.649 62.5449 181.654 61.6457H174.605V60.442H183.172V61.4669C183.172 62.4482 183.172 63.4876 182.824 64.759ZM179.169 63.2169V65.4551H184.535V66.6878H173.319V65.4551H177.665V63.2169H179.169ZM178.86 67.587C181.547 67.5919 183.239 68.4378 183.249 69.9026C183.239 71.3432 181.547 72.2037 178.86 72.1989C176.196 72.2037 174.489 71.3432 174.489 69.9026C174.489 68.4378 176.196 67.5919 178.86 67.587ZM178.86 71.029C180.653 71.029 181.731 70.6326 181.736 69.9026C181.731 69.1533 180.653 68.7327 178.86 68.7279C177.076 68.7327 175.998 69.1533 176.007 69.9026C175.998 70.6326 177.076 71.029 178.86 71.029ZM190.398 65.7597C187.768 65.7645 185.96 64.7155 185.965 63.0622C185.96 61.3798 187.768 60.3018 190.398 60.3018C193.032 60.3018 194.85 61.3798 194.85 63.0622C194.85 64.7155 193.032 65.7645 190.398 65.7597ZM190.398 61.5249C188.653 61.5249 187.521 62.0905 187.531 63.0622C187.521 64.0048 188.653 64.5559 190.398 64.5559C192.153 64.5559 193.279 64.0048 193.284 63.0622C193.279 62.0905 192.153 61.5249 190.398 61.5249ZM184.78 66.7845H196.078V68.0173H193.323V72.2086H191.785V68.0173H189.039V72.2086H187.483V68.0173H184.78V66.7845ZM205.973 64.7831H207.877V66.0352H205.973V72.2086H204.469V59.8619H205.973V64.7831ZM199.147 60.0359H200.665V61.7521H203.517V62.98H196.227V61.7521H199.147V60.0359ZM199.915 63.7776C201.694 63.7776 203.014 64.9814 203.024 66.6878C203.014 68.3943 201.694 69.5932 199.915 69.5932C198.112 69.5932 196.788 68.3943 196.797 66.6878C196.788 64.9814 198.112 63.7776 199.915 63.7776ZM199.915 68.3363C200.868 68.346 201.559 67.703 201.569 66.6878C201.559 65.6872 200.868 65.0249 199.915 65.0249C198.949 65.0249 198.243 65.6872 198.252 66.6878C198.243 67.703 198.949 68.346 199.915 68.3363ZM217.472 64.6671H219.377V65.9434H217.472V72.2086H215.95V59.8619H217.472V64.6671ZM212.227 62.3273V63.3667C212.217 65.2811 213.363 67.4517 215.311 68.3605L214.461 69.5594C213.068 68.9116 212.039 67.5822 211.483 66.0352C210.922 67.732 209.844 69.1823 208.427 69.8688L207.533 68.6699C209.501 67.7417 210.7 65.4261 210.704 63.3667V62.3273H208.012V61.0801H214.809V62.3273H212.227Z" fill="#E4E6EB"/>
</g>
<defs>
<filter id="filter0_d_896_15857" x="72.9637" y="-4.89443" width="359.566" height="359.566" filterUnits="userSpaceOnUse" color-interpolation-filters="sRGB">
<feFlood flood-opacity="0" result="BackgroundImageFix"/>
<feColorMatrix in="SourceAlpha" type="matrix" values="0 0 0 0 0 0 0 0 0 0 0 0 0 0 0 0 0 0 127 0" result="hardAlpha"/>
<feOffset/>
<feGaussianBlur stdDeviation="51.7681"/>
<feComposite in2="hardAlpha" operator="out"/>
<feColorMatrix type="matrix" values="0 0 0 0 0.886275 0 0 0 0 0.117647 0 0 0 0 0.258824 0 0 0 1 0"/>
<feBlend mode="normal" in2="BackgroundImageFix" result="effect1_dropShadow_896_15857"/>
<feBlend mode="normal" in="SourceGraphic" in2="effect1_dropShadow_896_15857" result="shape"/>
</filter>
<linearGradient id="paint0_linear_896_15857" x1="286.911" y1="183.687" x2="19.7335" y2="94.0056" gradientUnits="userSpaceOnUse">
<stop stop-color="#93A4F2"/>
<stop offset="0.275553" stop-color="#FF6B69"/>
<stop offset="0.706731" stop-color="#FFA3FE"/>
<stop offset="1" stop-color="#FEFDC6"/>
</linearGradient>
<linearGradient id="paint1_linear_896_15857" x1="196.404" y1="203.542" x2="-9.35827" y2="363.867" gradientUnits="userSpaceOnUse">
<stop stop-color="#93A4F2"/>
<stop offset="0.416003" stop-color="#FF7CFE"/>
<stop offset="0.729622" stop-color="#FF6462"/>
<stop offset="1" stop-color="#FDAD7C"/>
</linearGradient>
<linearGradient id="paint2_linear_896_15857" x1="252.641" y1="182.009" x2="-3.5" y2="182.009" gradientUnits="userSpaceOnUse">
<stop stop-color="#99A2FF"/>
<stop offset="0.4375" stop-color="#FFFFC1"/>
<stop offset="0.754808" stop-color="#FEB082"/>
<stop offset="1" stop-color="#FE6651"/>
</linearGradient>
<clipPath id="clip0_896_15857">
<rect width="327" height="218" rx="10" fill="white"/>
</clipPath>
</defs>
</svg>
