<svg width="328" height="218" viewBox="0 0 328 218" fill="none" xmlns="http://www.w3.org/2000/svg">
<g clip-path="url(#clip0_896_17073)">
<rect x="0.5" width="327" height="218" rx="10" fill="url(#paint0_linear_896_17073)"/>
<g clip-path="url(#clip1_896_17073)">
<rect x="98.4863" y="90.5" width="127" height="199" rx="9.5" fill="url(#paint1_linear_896_17073)" stroke="url(#paint2_linear_896_17073)"/>
</g>
<rect x="39.5" y="118" width="74" height="74" rx="12" fill="#1F2021"/>
<g clip-path="url(#clip2_896_17073)">
<path d="M102.499 131.47H100.029V138.896H102.499V131.47Z" fill="#0066FF"/>
<path d="M100.029 138.896H97.543V143.853H100.029V138.896Z" fill="#0066FF"/>
<path d="M100.03 129H95.0742V131.47H100.03V129Z" fill="#0066FF"/>
<path d="M97.5442 143.853H95.0742V148.809H97.5442V143.853Z" fill="#0066FF"/>
<path d="M95.0741 148.809H92.5879V153.765H95.0741V148.809Z" fill="#0066FF"/>
<path d="M95.0741 131.47H92.5879V136.426H95.0741V131.47Z" fill="#0066FF"/>
<path d="M92.5872 153.765H90.1172V158.705H92.5872V153.765Z" fill="#0066FF"/>
<path d="M92.5872 136.426H90.1172V141.383H92.5872V136.426Z" fill="#0066FF"/>
<path d="M90.1184 166.147H87.6484V173.574H90.1184V166.147Z" fill="#0066FF"/>
<path d="M90.1184 158.705H87.6484V163.661H90.1184V158.705Z" fill="#0066FF"/>
<path d="M90.1184 141.383H87.6484V146.339H90.1184V141.383Z" fill="#0066FF"/>
<path d="M87.6484 146.339H85.1621V151.279H87.6484V146.339Z" fill="#0066FF"/>
<path d="M85.162 171.087H82.692V173.574H80.222V171.087H77.7357V168.617H75.2657V171.087H72.7795V166.147H70.3095V173.574H67.8395V176.044H65.3532V178.514H52.9707V181H80.222V178.514H85.162V176.044H87.6482V173.574H85.162V171.087Z" fill="#0066FF"/>
<path d="M87.6477 163.661H82.6914V166.148H87.6477V163.661Z" fill="#0066FF"/>
<path d="M85.1614 151.279H82.6914V156.235H85.1614V151.279Z" fill="#0066FF"/>
<path d="M82.6919 163.661V156.235H80.2219V161.191H75.2656V163.661H82.6919Z" fill="#0066FF"/>
<path d="M75.2655 163.661H72.7793V166.148H75.2655V163.661Z" fill="#0066FF"/>
<path d="M75.2655 148.809H72.7793V151.279H75.2655V148.809Z" fill="#0066FF"/>
<path d="M72.7786 151.279H70.3086V153.765H72.7786V151.279Z" fill="#0066FF"/>
<path d="M72.7795 146.339H52.9707V148.809H72.7795V146.339Z" fill="#0066FF"/>
<path d="M67.8378 166.147H65.3516V168.617H67.8378V166.147Z" fill="#0066FF"/>
<path d="M70.3091 153.765H62.8828V156.235H70.3091V153.765Z" fill="#0066FF"/>
<path d="M65.3528 168.617H62.8828V171.087H65.3528V168.617Z" fill="#0066FF"/>
<path d="M65.352 163.661H57.9258V166.148H65.352V163.661Z" fill="#0066FF"/>
<path d="M62.882 156.235H57.9258V158.705H62.882V156.235Z" fill="#0066FF"/>
<path d="M62.8833 171.087H55.457V173.574H62.8833V171.087Z" fill="#0066FF"/>
<path d="M57.927 158.705H55.457V163.661H57.927V158.705Z" fill="#0066FF"/>
<path d="M55.457 173.574H52.9707V176.044H55.457V173.574Z" fill="#0066FF"/>
<path d="M52.97 176.044H50.5V178.514H52.97V176.044Z" fill="#0066FF"/>
</g>
<rect x="127.5" y="118" width="74" height="74" rx="12" fill="#1F2021"/>
<g clip-path="url(#clip3_896_17073)">
<path d="M186.353 169.141V133.147H150.359V128H142.647V133.147H137.5V140.859H142.647V176.853H178.641V182H186.353V176.853H191.5V169.141H186.353ZM188.935 174.288H183.788V179.435H181.223V174.288H145.212V138.294H140.082V135.712H145.212V130.565H147.794V135.712H183.788V171.723H188.935V174.288Z" fill="#FA73E3"/>
<path d="M147.793 138.294V171.723H181.222V138.294H147.793ZM178.64 153.717H170.929V156.282H178.64V169.141H170.929V166.576H168.364V169.141H150.358V166.576H152.94V163.994H150.358V140.859H178.64V153.717Z" fill="#FA73E3"/>
<path d="M170.93 156.283H168.365V158.864H170.93V156.283Z" fill="#FA73E3"/>
<path d="M168.365 158.864H165.783V161.429H168.365V158.864Z" fill="#FA73E3"/>
<path d="M168.365 163.994H165.783V166.576H168.365V163.994Z" fill="#FA73E3"/>
<path d="M165.782 161.429H163.217V163.994H165.782V161.429Z" fill="#FA73E3"/>
<path d="M155.506 153.718H160.653V151.136H163.218V146.006H160.653V143.424H155.506V146.006H152.941V151.136H155.506V153.718Z" fill="#FA73E3"/>
<path d="M163.218 158.864H155.506V161.429H163.218V158.864Z" fill="#FA73E3"/>
<path d="M155.506 161.429H152.941V163.994H155.506V161.429Z" fill="#FA73E3"/>
</g>
<rect x="215.5" y="118" width="74" height="74" rx="12" fill="#1F2021"/>
<g clip-path="url(#clip4_896_17073)">
<path d="M277.501 171.838H274.928V179.573H272.355V174.427H269.766V182.162H277.501V171.838Z" fill="#FEF08C"/>
<path d="M274.928 161.53H272.355V171.838H274.928V161.53Z" fill="#FEF08C"/>
<path d="M269.764 166.675H267.191V174.427H269.764V166.675Z" fill="#FEF08C"/>
<path d="M267.192 156.368H269.765V161.53H272.355V153.795H269.765V140.897H272.355V130.573H254.295V128H251.722V130.573H233.662V140.897H236.244V133.162H264.628V140.897H262.038V153.795H259.466V164.103H231.09V153.795H228.5V166.675H233.662V174.427H236.244V166.675H238.833V174.427H236.244V179.573H233.662V174.427H231.09V182.162H238.825V177H254.295V182.162H262.03V174.427H259.457V179.573H256.868V174.427H241.397V171.838H256.868V174.427H259.457V166.675H262.03V174.427H264.62V166.675H267.192V156.368ZM256.868 169.265H241.397V166.675H256.868V169.265Z" fill="#FEF08C"/>
<path d="M259.457 146.043H256.867V151.205H259.457V146.043Z" fill="#FEF08C"/>
<path d="M256.868 151.205H254.295V156.368H256.868V151.205Z" fill="#FEF08C"/>
<path d="M256.868 143.47H254.295V146.043H256.868V143.47Z" fill="#FEF08C"/>
<path d="M256.868 135.735H254.295V138.308H256.868V135.735Z" fill="#FEF08C"/>
<path d="M254.294 156.368H241.396V158.94H254.294V156.368Z" fill="#FEF08C"/>
<path d="M251.722 146.043H249.133V148.632H251.722V146.043Z" fill="#FEF08C"/>
<path d="M249.133 151.205H246.561V153.795H249.133V151.205Z" fill="#FEF08C"/>
<path d="M243.986 146.043H241.396V148.632H243.986V146.043Z" fill="#FEF08C"/>
<path d="M254.294 143.47V138.308H251.722V140.897H249.132V135.735H246.559V140.897H243.987V138.308H241.397V140.897H238.824V143.47H254.294Z" fill="#FEF08C"/>
<path d="M241.397 151.205H238.824V156.368H241.397V151.205Z" fill="#FEF08C"/>
<path d="M241.397 135.735H238.824V138.308H241.397V135.735Z" fill="#FEF08C"/>
<path d="M238.824 143.47H236.234V151.205H238.824V143.47Z" fill="#FEF08C"/>
<path d="M233.663 140.897H231.09V153.795H233.663V140.897Z" fill="#FEF08C"/>
</g>
<path d="M41.9613 34.9116H44.9779V37.3564H41.9613V48.1133H38.9696V26.8149H41.9613V34.9116ZM28.7928 28.8619V40.4309C31.5193 40.3812 34.4448 40.1326 37.5276 39.511L37.8425 42.0055C34.2624 42.7182 30.8066 42.9088 27.6575 42.9006H25.8094V28.8619H28.7928ZM62.203 26.8315V32.9724H65.0704V35.442H62.203V42.395H59.203V26.8315H62.203ZM45.9101 28.5967H56.1532V38.8398H45.9101V28.5967ZM48.8687 36.4862H53.203V30.9751H48.8687V36.4862ZM48.3632 40.8536H51.3466V45.3785H62.9654V47.7901H48.3632V40.8536ZM80.3645 26.8149H83.3396V48.2127H80.3645V26.8149ZM72.3175 28.2486C75.7153 28.2486 78.2264 30.4282 78.2429 33.4862C78.2264 36.5525 75.7153 38.7238 72.3175 38.7238C68.9612 38.7238 66.3921 36.5525 66.4004 33.4862C66.3921 30.4282 68.9612 28.2486 72.3175 28.2486ZM72.3175 30.8343C70.6352 30.8343 69.3672 31.8204 69.3672 33.4862C69.3672 35.1768 70.6435 36.1381 72.3175 36.1381C74.0247 36.1381 75.3175 35.1768 75.3258 33.4862C75.3175 31.8204 74.033 30.8343 72.3175 30.8343ZM65.8534 43.8453L65.5137 41.4171C69.3175 41.4171 74.5882 41.3674 79.1545 40.7293L79.3783 42.884C74.6545 43.8039 69.591 43.8453 65.8534 43.8453ZM105.347 26.8481H108.347V38.8978H105.347V26.8481ZM91.5733 28.0994H101.99V37.6547H91.5733V28.0994ZM99.0318 30.4862H94.5153V35.2928H99.0318V30.4862ZM94.0512 39.9503H108.347V47.9227H94.0512V39.9503ZM105.413 42.2707H97.0015V45.5276H105.413V42.2707ZM132.492 26.8315V32.9724H135.359V35.442H132.492V42.395H129.492V26.8315H132.492ZM116.199 28.5967H126.442V38.8398H116.199V28.5967ZM119.158 36.4862H123.492V30.9751H119.158V36.4862ZM118.652 40.8536H121.636V45.3785H133.254V47.7901H118.652V40.8536ZM141.123 31.6215H152.883V33.9751H138.14V27.2624H152.717V29.6326H141.123V31.6215ZM135.712 37.5055V35.1602H155.203V37.5055H135.712ZM152.792 44.326H140.908V45.6602H153.347V47.9724H137.974V42.1961H149.841V41.011H137.957V38.7486H152.792V44.326ZM170.746 48.163V26.8149H173.771V48.163H170.746ZM157.064 29.0608H167.381C167.373 35.5249 165.102 40.9033 157.478 44.5L155.92 42.1215C161.423 39.511 163.851 36.1464 164.332 31.4061H157.064V29.0608Z" fill="black"/>
<path d="M31.326 68.1381V67.0843H33.7479V59.8715H35.2756V69.221H33.7479V68.1381H31.326ZM28.8847 64.6768C27.0573 64.6768 25.7956 63.8356 25.7956 62.511C25.7956 61.2058 27.0525 60.3163 28.8847 60.3211C30.6878 60.3163 31.9544 61.2058 31.9641 62.511C31.9544 63.8356 30.6878 64.6768 28.8847 64.6768ZM28.8847 61.4427C27.8985 61.4378 27.2314 61.8391 27.241 62.511C27.2314 63.183 27.8985 63.5698 28.8847 63.5698C29.8322 63.5698 30.5041 63.183 30.5138 62.511C30.5041 61.8391 29.8322 61.4378 28.8847 61.4427ZM29.7935 68.8778H28.2659V66.5863C27.1153 66.6347 26.0131 66.6395 25.0414 66.6395L24.8577 65.4261C27.1347 65.4116 30.1996 65.3874 32.8198 65.0539L32.9116 66.1464C31.8964 66.3156 30.8377 66.4268 29.7935 66.5041V68.8778ZM28.0193 68.317V70.7438H35.5608V71.9765H26.4965V68.317H28.0193ZM46.0887 64.7831H47.9934V66.0352H46.0887V72.2086H44.5852V59.8619H46.0887V64.7831ZM39.2627 60.0359H40.7807V61.7521H43.6329V62.98H36.3428V61.7521H39.2627V60.0359ZM40.0314 63.7776C41.8104 63.7776 43.1301 64.9814 43.1398 66.6878C43.1301 68.3943 41.8104 69.5932 40.0314 69.5932C38.2282 69.5932 36.9036 68.3943 36.9133 66.6878C36.9036 64.9814 38.2282 63.7776 40.0314 63.7776ZM40.0314 68.3363C40.9837 68.346 41.675 67.703 41.6847 66.6878C41.675 65.6872 40.9837 65.0249 40.0314 65.0249C39.0645 65.0249 38.3587 65.6872 38.3684 66.6878C38.3587 67.703 39.0645 68.346 40.0314 68.3363ZM50.8687 63.3522H57.9219V64.5559H49.3556V60.3066H50.8687V63.3522ZM47.8956 67.1954V65.9965H59.1933V67.1954H47.8956ZM49.2541 68.288H50.772V70.6954H57.9992V71.9282H49.2541V68.288ZM70.8965 59.8715H72.4193V66.8715H70.8965V59.8715ZM62.7653 60.616H68.7163V66.0932H62.7653V60.616ZM67.2128 61.8391H64.2591V64.8798H67.2128V61.8391ZM64.2252 67.5097H72.4193V72.0635H64.2252V67.5097ZM70.9303 68.6989H65.7239V70.8356H70.9303V68.6989ZM80.0521 64.4496C79.501 65.6001 78.4713 66.4993 77.0162 66.9247L76.2862 65.7258C78.2344 65.1989 79.2786 63.8356 79.2786 62.395V62.3515H76.6923V61.1381H79.2786V59.8087H80.8111V61.1381H83.3732V62.3515H80.7917V62.395C80.7917 63.7148 81.7924 65.0104 83.7406 65.5276L83.059 66.6927C81.6232 66.3108 80.608 65.4938 80.0521 64.4496ZM86.1046 59.8619V62.7286H87.8304V63.9855H86.1046V66.9441H84.5769V59.8619H86.1046ZM86.2786 68.7231H83.0107C83.291 69.7528 84.6785 70.7148 86.7959 71.0097L86.2448 72.1796C84.3111 71.8992 82.8511 71.0725 82.1405 69.9558C81.4298 71.0677 79.9747 71.8798 78.0555 72.1506L77.4996 71C79.6315 70.7099 80.9996 69.7769 81.2848 68.7231H78.012V67.5193H86.2786V68.7231ZM97.4543 68.0173L95.917 67.8529C96.4005 65.4551 96.4053 63.7003 96.4101 62.2113H89.0282V60.9883H97.9377V62.1775C97.9329 63.7148 97.9329 65.4358 97.4543 68.0173ZM93.5192 65.078V69.3757H99.1125V70.6229H87.8535V69.3757H92.0109V65.078H93.5192ZM100.025 70.0138H101.761L100.625 73.8474H99.3193L100.025 70.0138ZM115.408 68.989H113.89V65.7693H112.14V64.5076H113.89V63.3232H112.14V62.0953H113.89V59.8619H115.408V68.989ZM112.222 65.8273L112.285 66.9441C109.945 67.3163 107.204 67.3646 105.236 67.3695L105.067 66.1126C105.502 66.1126 105.976 66.1077 106.469 66.1029V62.0083H105.391V60.7804H111.956V62.0083H110.863V65.9482C111.327 65.9144 111.787 65.8757 112.222 65.8273ZM109.408 62.0083H107.943V66.0787C108.427 66.0691 108.915 66.0546 109.408 66.0304V62.0083ZM108.814 68.2783V70.7438H115.712V71.9765H107.281V68.2783H108.814ZM125.322 66.5573V59.8619H126.844V66.5573H125.322ZM120.492 63.9275C119.936 65.1602 118.877 66.1367 117.408 66.6008L116.634 65.4068C118.616 64.8218 119.69 63.3425 119.709 61.8101H117.05V60.5919H123.852V61.8101H121.251C121.266 63.2555 122.329 64.6526 124.277 65.2037L123.518 66.3881C122.087 65.9675 121.053 65.0732 120.492 63.9275ZM120.173 68.3702H125.331V67.0988H126.844V72.0635H118.679V67.0988H120.173V68.3702ZM120.173 70.8356H125.331V69.5546H120.173V70.8356ZM137.909 64.7928H139.625V66.0449H137.909V72.2086H136.381V59.8619H137.909V64.7928ZM131.76 61.1575C131.75 64.3964 131.3 67.1229 129.072 69.5352L127.873 68.6796C129.618 66.8329 130.189 64.875 130.309 62.4047H128.371V61.1575H131.76ZM132.171 61.1575H135.177C135.168 64.4786 134.82 67.6547 132.596 70.3377L131.383 69.4917C133.137 67.3936 133.64 65.0829 133.742 62.4047H132.171V61.1575ZM148.306 72.2086V59.8619H149.839V72.2086H148.306ZM144.221 62.3273V63.3667C144.221 65.3971 145.411 67.529 147.397 68.3605L146.571 69.5594C145.111 68.9261 144.038 67.6305 143.472 66.0594C142.906 67.7562 141.823 69.1823 140.373 69.8688L139.498 68.6699C141.451 67.7756 142.665 65.4744 142.674 63.3667V62.3273H139.953V61.0801H146.919V62.3273H144.221ZM163.456 64.6865H165.288V65.9482H163.456V72.1892H161.933V59.8619H163.456V64.6865ZM154.373 61.143H160.193C160.183 64.7735 158.68 67.9641 154.571 69.9848L153.715 68.8149C156.722 67.3066 158.346 65.2086 158.646 62.395H154.373V61.143ZM168.256 63.0718H175.27V64.2997H166.742V60.0746H168.256V63.0718ZM165.278 66.7217V65.4841H176.556V66.7217H165.278ZM170.89 67.616C173.564 67.616 175.169 68.4378 175.173 69.8881C175.169 71.3432 173.564 72.1602 170.89 72.1602C168.207 72.1602 166.588 71.3432 166.588 69.8881C166.588 68.4378 168.207 67.616 170.89 67.616ZM170.89 70.9952C172.664 70.9952 173.646 70.6036 173.655 69.8881C173.646 69.1581 172.664 68.8101 170.89 68.8004C169.097 68.8101 168.125 69.1581 168.135 69.8881C168.125 70.6036 169.097 70.9952 170.89 70.9952ZM187.761 62.04C188.526 62.04 189.161 62.138 189.665 62.334C190.169 62.53 190.542 62.796 190.785 63.132C191.037 63.468 191.163 63.8413 191.163 64.252C191.163 64.6813 191.065 65.05 190.869 65.358C190.682 65.666 190.342 65.9413 189.847 66.184L189.819 66.114C190.323 66.2633 190.696 66.506 190.939 66.842C191.191 67.1687 191.317 67.5513 191.317 67.99C191.317 68.2793 191.252 68.55 191.121 68.802C191 69.054 190.818 69.278 190.575 69.474C190.332 69.6607 190.029 69.81 189.665 69.922C189.31 70.0247 188.9 70.076 188.433 70.076H186.711V68.606H187.719C188.074 68.606 188.358 68.5873 188.573 68.55C188.788 68.5127 188.946 68.4427 189.049 68.34C189.124 68.2653 189.175 68.186 189.203 68.102C189.24 68.0087 189.259 67.9013 189.259 67.78C189.259 67.64 189.226 67.514 189.161 67.402C189.096 67.29 189.012 67.2013 188.909 67.136C188.788 67.0613 188.643 67.0053 188.475 66.968C188.307 66.9307 188.041 66.912 187.677 66.912H186.879V65.456H187.565C187.864 65.456 188.116 65.4327 188.321 65.386C188.536 65.33 188.713 65.2367 188.853 65.106C188.928 65.0313 188.988 64.9427 189.035 64.84C189.082 64.728 189.105 64.6067 189.105 64.476C189.105 64.1587 188.988 63.9207 188.755 63.762C188.522 63.594 188.167 63.51 187.691 63.51C186.982 63.51 186.394 63.6593 185.927 63.958C185.46 64.2567 185.11 64.672 184.877 65.204C184.644 65.736 184.527 66.3613 184.527 67.08C184.527 67.528 184.555 67.9853 184.611 68.452C184.676 68.9187 184.77 69.3573 184.891 69.768L182.959 70.132C182.8 69.6653 182.674 69.1473 182.581 68.578C182.488 67.9993 182.441 67.4627 182.441 66.968C182.441 65.9507 182.637 65.078 183.029 64.35C183.43 63.6127 184.023 63.0433 184.807 62.642C185.6 62.2407 186.585 62.04 187.761 62.04ZM187.691 73.604C187.271 73.604 186.856 73.5807 186.445 73.534C186.044 73.4873 185.642 73.408 185.241 73.296C184.84 73.1933 184.434 73.0487 184.023 72.862L184.835 71.518C185.124 71.6487 185.409 71.756 185.689 71.84C185.978 71.9333 186.272 71.9987 186.571 72.036C186.879 72.0733 187.206 72.092 187.551 72.092C187.971 72.092 188.307 72.05 188.559 71.966C188.811 71.882 188.993 71.7653 189.105 71.616C189.217 71.4667 189.273 71.294 189.273 71.098C189.273 70.8553 189.194 70.6453 189.035 70.468C188.876 70.2813 188.657 70.1367 188.377 70.034L189.511 68.872C189.884 68.9933 190.202 69.1567 190.463 69.362C190.734 69.5673 190.944 69.8147 191.093 70.104C191.242 70.3933 191.317 70.734 191.317 71.126C191.317 71.6113 191.191 72.0407 190.939 72.414C190.687 72.7873 190.29 73.0767 189.749 73.282C189.217 73.4967 188.531 73.604 187.691 73.604ZM190.897 58.162C191.308 58.162 191.677 58.204 192.003 58.288C192.33 58.3627 192.619 58.484 192.871 58.652C193.189 58.8573 193.436 59.1047 193.613 59.394C193.8 59.674 193.935 60.0427 194.019 60.5C194.103 60.948 194.145 61.5407 194.145 62.278V70.076H192.073V62.6C192.073 62.1333 192.064 61.7367 192.045 61.41C192.027 61.074 191.989 60.7987 191.933 60.584C191.887 60.36 191.817 60.1827 191.723 60.052C191.63 59.9213 191.518 59.8187 191.387 59.744C191.257 59.6693 191.084 59.632 190.869 59.632C190.711 59.632 190.557 59.6693 190.407 59.744C190.258 59.8093 190.141 59.9167 190.057 60.066C189.964 60.206 189.917 60.388 189.917 60.612C189.917 60.696 189.927 60.7847 189.945 60.878C189.955 60.962 189.969 61.0413 189.987 61.116L187.971 61.354C187.934 61.242 187.906 61.1253 187.887 61.004C187.869 60.8733 187.859 60.738 187.859 60.598C187.859 60.0567 187.995 59.6087 188.265 59.254C188.527 58.89 188.886 58.6193 189.343 58.442C189.801 58.2553 190.319 58.162 190.897 58.162ZM197.331 61.732H204.485V63.216H197.331V61.732ZM200.887 63.86C201.531 63.86 202.105 63.986 202.609 64.238C203.123 64.49 203.524 64.84 203.813 65.288C204.112 65.736 204.261 66.2447 204.261 66.814C204.261 67.402 204.112 67.92 203.813 68.368C203.524 68.8067 203.123 69.1567 202.609 69.418C202.105 69.67 201.531 69.796 200.887 69.796C200.243 69.796 199.665 69.67 199.151 69.418C198.638 69.1567 198.232 68.8067 197.933 68.368C197.644 67.92 197.499 67.402 197.499 66.814C197.499 66.2447 197.644 65.736 197.933 65.288C198.232 64.84 198.638 64.49 199.151 64.238C199.665 63.986 200.243 63.86 200.887 63.86ZM200.887 65.316C200.589 65.316 200.318 65.3767 200.075 65.498C199.833 65.6193 199.641 65.792 199.501 66.016C199.371 66.24 199.305 66.506 199.305 66.814C199.305 67.1313 199.371 67.4067 199.501 67.64C199.641 67.8733 199.833 68.0507 200.075 68.172C200.318 68.2933 200.589 68.354 200.887 68.354C201.195 68.354 201.466 68.2933 201.699 68.172C201.933 68.0507 202.119 67.8733 202.259 67.64C202.399 67.4067 202.469 67.1313 202.469 66.814C202.469 66.506 202.399 66.24 202.259 66.016C202.119 65.792 201.933 65.6193 201.699 65.498C201.466 65.3767 201.195 65.316 200.887 65.316ZM206.635 71H213.026V72.3874H206.635V71ZM215.244 61.732H222.398V63.216H215.244V61.732ZM218.8 63.86C219.444 63.86 220.018 63.986 220.522 64.238C221.036 64.49 221.437 64.84 221.726 65.288C222.025 65.736 222.174 66.2447 222.174 66.814C222.174 67.402 222.025 67.92 221.726 68.368C221.437 68.8067 221.036 69.1567 220.522 69.418C220.018 69.67 219.444 69.796 218.8 69.796C218.156 69.796 217.578 69.67 217.064 69.418C216.551 69.1567 216.145 68.8067 215.846 68.368C215.557 67.92 215.412 67.402 215.412 66.814C215.412 66.2447 215.557 65.736 215.846 65.288C216.145 64.84 216.551 64.49 217.064 64.238C217.578 63.986 218.156 63.86 218.8 63.86ZM218.8 65.316C218.502 65.316 218.231 65.3767 217.988 65.498C217.746 65.6193 217.554 65.792 217.414 66.016C217.284 66.24 217.218 66.506 217.218 66.814C217.218 67.1313 217.284 67.4067 217.414 67.64C217.554 67.8733 217.746 68.0507 217.988 68.172C218.231 68.2933 218.502 68.354 218.8 68.354C219.108 68.354 219.379 68.2933 219.612 68.172C219.846 68.0507 220.032 67.8733 220.172 67.64C220.312 67.4067 220.382 67.1313 220.382 66.814C220.382 66.506 220.312 66.24 220.172 66.016C220.032 65.792 219.846 65.6193 219.612 65.498C219.379 65.3767 219.108 65.316 218.8 65.316ZM228.58 66.9586C228.58 69.3757 227.937 71.3819 226.665 73.1029H225.031C226.008 71.8267 226.772 69.2548 226.772 66.9586C226.772 64.6671 226.008 62.0905 225.031 60.8142H226.665C227.937 62.5352 228.58 64.5463 228.58 66.9586Z" fill="black"/>
</g>
<defs>
<linearGradient id="paint0_linear_896_17073" x1="21" y1="-8.00002" x2="327.5" y2="295.5" gradientUnits="userSpaceOnUse">
<stop stop-color="#FFB0EA"/>
<stop offset="1" stop-color="#FD2DC3"/>
</linearGradient>
<linearGradient id="paint1_linear_896_17073" x1="142.5" y1="90" x2="211" y2="290" gradientUnits="userSpaceOnUse">
<stop stop-color="white" stop-opacity="0.4"/>
<stop offset="1" stop-color="white"/>
</linearGradient>
<linearGradient id="paint2_linear_896_17073" x1="290.5" y1="120" x2="153" y2="218.5" gradientUnits="userSpaceOnUse">
<stop stop-color="white" stop-opacity="0"/>
<stop offset="1" stop-color="white"/>
</linearGradient>
<clipPath id="clip0_896_17073">
<rect x="0.5" width="327" height="218" rx="10" fill="white"/>
</clipPath>
<clipPath id="clip1_896_17073">
<rect x="0.689453" width="327" height="218" rx="10" fill="white"/>
</clipPath>
<clipPath id="clip2_896_17073">
<rect width="52" height="52" fill="white" transform="translate(50.5 129)"/>
</clipPath>
<clipPath id="clip3_896_17073">
<rect width="54" height="54" fill="white" transform="translate(137.5 128)"/>
</clipPath>
<clipPath id="clip4_896_17073">
<rect width="54" height="54" fill="white" transform="translate(225.5 128)"/>
</clipPath>
</defs>
</svg>
