<svg width="328" height="218" viewBox="0 0 328 218" fill="none" xmlns="http://www.w3.org/2000/svg">
<g clip-path="url(#clip0_896_17073)">
<rect x="0.5" width="327" height="218" rx="10" fill="url(#paint0_linear_896_17073)"/>
<g clip-path="url(#clip1_896_17073)">
<rect x="98.4863" y="90.5" width="127" height="199" rx="9.5" fill="url(#paint1_linear_896_17073)" stroke="url(#paint2_linear_896_17073)"/>
</g>
<rect x="39.5" y="118" width="74" height="74" rx="12" fill="#1F2021"/>
<g clip-path="url(#clip2_896_17073)">
<path d="M102.499 131.47H100.029V138.896H102.499V131.47Z" fill="#0066FF"/>
<path d="M100.029 138.896H97.543V143.853H100.029V138.896Z" fill="#0066FF"/>
<path d="M100.03 129H95.0742V131.47H100.03V129Z" fill="#0066FF"/>
<path d="M97.5442 143.853H95.0742V148.809H97.5442V143.853Z" fill="#0066FF"/>
<path d="M95.0741 148.809H92.5879V153.765H95.0741V148.809Z" fill="#0066FF"/>
<path d="M95.0741 131.47H92.5879V136.426H95.0741V131.47Z" fill="#0066FF"/>
<path d="M92.5872 153.765H90.1172V158.705H92.5872V153.765Z" fill="#0066FF"/>
<path d="M92.5872 136.426H90.1172V141.383H92.5872V136.426Z" fill="#0066FF"/>
<path d="M90.1184 166.147H87.6484V173.574H90.1184V166.147Z" fill="#0066FF"/>
<path d="M90.1184 158.705H87.6484V163.661H90.1184V158.705Z" fill="#0066FF"/>
<path d="M90.1184 141.383H87.6484V146.339H90.1184V141.383Z" fill="#0066FF"/>
<path d="M87.6484 146.339H85.1621V151.279H87.6484V146.339Z" fill="#0066FF"/>
<path d="M85.162 171.087H82.692V173.574H80.222V171.087H77.7357V168.617H75.2657V171.087H72.7795V166.147H70.3095V173.574H67.8395V176.044H65.3532V178.514H52.9707V181H80.222V178.514H85.162V176.044H87.6482V173.574H85.162V171.087Z" fill="#0066FF"/>
<path d="M87.6477 163.661H82.6914V166.148H87.6477V163.661Z" fill="#0066FF"/>
<path d="M85.1614 151.279H82.6914V156.235H85.1614V151.279Z" fill="#0066FF"/>
<path d="M82.6919 163.661V156.235H80.2219V161.191H75.2656V163.661H82.6919Z" fill="#0066FF"/>
<path d="M75.2655 163.661H72.7793V166.148H75.2655V163.661Z" fill="#0066FF"/>
<path d="M75.2655 148.809H72.7793V151.279H75.2655V148.809Z" fill="#0066FF"/>
<path d="M72.7786 151.279H70.3086V153.765H72.7786V151.279Z" fill="#0066FF"/>
<path d="M72.7795 146.339H52.9707V148.809H72.7795V146.339Z" fill="#0066FF"/>
<path d="M67.8378 166.147H65.3516V168.617H67.8378V166.147Z" fill="#0066FF"/>
<path d="M70.3091 153.765H62.8828V156.235H70.3091V153.765Z" fill="#0066FF"/>
<path d="M65.3528 168.617H62.8828V171.087H65.3528V168.617Z" fill="#0066FF"/>
<path d="M65.352 163.661H57.9258V166.148H65.352V163.661Z" fill="#0066FF"/>
<path d="M62.882 156.235H57.9258V158.705H62.882V156.235Z" fill="#0066FF"/>
<path d="M62.8833 171.087H55.457V173.574H62.8833V171.087Z" fill="#0066FF"/>
<path d="M57.927 158.705H55.457V163.661H57.927V158.705Z" fill="#0066FF"/>
<path d="M55.457 173.574H52.9707V176.044H55.457V173.574Z" fill="#0066FF"/>
<path d="M52.97 176.044H50.5V178.514H52.97V176.044Z" fill="#0066FF"/>
</g>
<rect x="127.5" y="118" width="74" height="74" rx="12" fill="#1F2021"/>
<g clip-path="url(#clip3_896_17073)">
<path d="M186.353 169.141V133.147H150.359V128H142.647V133.147H137.5V140.859H142.647V176.853H178.641V182H186.353V176.853H191.5V169.141H186.353ZM188.935 174.288H183.788V179.435H181.223V174.288H145.212V138.294H140.082V135.712H145.212V130.565H147.794V135.712H183.788V171.723H188.935V174.288Z" fill="#FA73E3"/>
<path d="M147.793 138.294V171.723H181.222V138.294H147.793ZM178.64 153.717H170.929V156.282H178.64V169.141H170.929V166.576H168.364V169.141H150.358V166.576H152.94V163.994H150.358V140.859H178.64V153.717Z" fill="#FA73E3"/>
<path d="M170.93 156.283H168.365V158.864H170.93V156.283Z" fill="#FA73E3"/>
<path d="M168.365 158.864H165.783V161.429H168.365V158.864Z" fill="#FA73E3"/>
<path d="M168.365 163.994H165.783V166.576H168.365V163.994Z" fill="#FA73E3"/>
<path d="M165.782 161.429H163.217V163.994H165.782V161.429Z" fill="#FA73E3"/>
<path d="M155.506 153.718H160.653V151.136H163.218V146.006H160.653V143.424H155.506V146.006H152.941V151.136H155.506V153.718Z" fill="#FA73E3"/>
<path d="M163.218 158.864H155.506V161.429H163.218V158.864Z" fill="#FA73E3"/>
<path d="M155.506 161.429H152.941V163.994H155.506V161.429Z" fill="#FA73E3"/>
</g>
<rect x="215.5" y="118" width="74" height="74" rx="12" fill="#1F2021"/>
<g clip-path="url(#clip4_896_17073)">
<path d="M277.501 171.838H274.928V179.573H272.355V174.427H269.766V182.162H277.501V171.838Z" fill="#FEF08C"/>
<path d="M274.928 161.53H272.355V171.838H274.928V161.53Z" fill="#FEF08C"/>
<path d="M269.764 166.675H267.191V174.427H269.764V166.675Z" fill="#FEF08C"/>
<path d="M267.192 156.368H269.765V161.53H272.355V153.795H269.765V140.897H272.355V130.573H254.295V128H251.722V130.573H233.662V140.897H236.244V133.162H264.628V140.897H262.038V153.795H259.466V164.103H231.09V153.795H228.5V166.675H233.662V174.427H236.244V166.675H238.833V174.427H236.244V179.573H233.662V174.427H231.09V182.162H238.825V177H254.295V182.162H262.03V174.427H259.457V179.573H256.868V174.427H241.397V171.838H256.868V174.427H259.457V166.675H262.03V174.427H264.62V166.675H267.192V156.368ZM256.868 169.265H241.397V166.675H256.868V169.265Z" fill="#FEF08C"/>
<path d="M259.457 146.043H256.867V151.205H259.457V146.043Z" fill="#FEF08C"/>
<path d="M256.868 151.205H254.295V156.368H256.868V151.205Z" fill="#FEF08C"/>
<path d="M256.868 143.47H254.295V146.043H256.868V143.47Z" fill="#FEF08C"/>
<path d="M256.868 135.735H254.295V138.308H256.868V135.735Z" fill="#FEF08C"/>
<path d="M254.294 156.368H241.396V158.94H254.294V156.368Z" fill="#FEF08C"/>
<path d="M251.722 146.043H249.133V148.632H251.722V146.043Z" fill="#FEF08C"/>
<path d="M249.133 151.205H246.561V153.795H249.133V151.205Z" fill="#FEF08C"/>
<path d="M243.986 146.043H241.396V148.632H243.986V146.043Z" fill="#FEF08C"/>
<path d="M254.294 143.47V138.308H251.722V140.897H249.132V135.735H246.559V140.897H243.987V138.308H241.397V140.897H238.824V143.47H254.294Z" fill="#FEF08C"/>
<path d="M241.397 151.205H238.824V156.368H241.397V151.205Z" fill="#FEF08C"/>
<path d="M241.397 135.735H238.824V138.308H241.397V135.735Z" fill="#FEF08C"/>
<path d="M238.824 143.47H236.234V151.205H238.824V143.47Z" fill="#FEF08C"/>
<path d="M233.663 140.897H231.09V153.795H233.663V140.897Z" fill="#FEF08C"/>
</g>
<path d="M41.9613 34.9116H44.9779V37.3564H41.9613V48.1133H38.9696V26.8149H41.9613V34.9116ZM28.7928 28.8619V40.4309C31.5193 40.3812 34.4448 40.1326 37.5276 39.511L37.8425 42.0055C34.2624 42.7182 30.8066 42.9088 27.6575 42.9006H25.8094V28.8619H28.7928ZM62.203 26.8315V32.9724H65.0704V35.442H62.203V42.395H59.203V26.8315H62.203ZM45.9101 28.5967H56.1532V38.8398H45.9101V28.5967ZM48.8687 36.4862H53.203V30.9751H48.8687V36.4862ZM48.3632 40.8536H51.3466V45.3785H62.9654V47.7901H48.3632V40.8536ZM80.3645 26.8149H83.3396V48.2127H80.3645V26.8149ZM72.3175 28.2486C75.7153 28.2486 78.2264 30.4282 78.2429 33.4862C78.2264 36.5525 75.7153 38.7238 72.3175 38.7238C68.9612 38.7238 66.3921 36.5525 66.4004 33.4862C66.3921 30.4282 68.9612 28.2486 72.3175 28.2486ZM72.3175 30.8343C70.6352 30.8343 69.3672 31.8204 69.3672 33.4862C69.3672 35.1768 70.6435 36.1381 72.3175 36.1381C74.0247 36.1381 75.3175 35.1768 75.3258 33.4862C75.3175 31.8204 74.033 30.8343 72.3175 30.8343ZM65.8534 43.8453L65.5137 41.4171C69.3175 41.4171 74.5882 41.3674 79.1545 40.7293L79.3783 42.884C74.6545 43.8039 69.591 43.8453 65.8534 43.8453ZM105.347 26.8481H108.347V38.8978H105.347V26.8481ZM91.5733 28.0994H101.99V37.6547H91.5733V28.0994ZM99.0318 30.4862H94.5153V35.2928H99.0318V30.4862ZM94.0512 39.9503H108.347V47.9227H94.0512V39.9503ZM105.413 42.2707H97.0015V45.5276H105.413V42.2707ZM132.26 36.7431H135.028V39.1796H126.707V48.1464H123.683V39.1796H115.569V36.7431H120.318C121.031 34.0994 121.172 32.1022 121.205 30.511H117.103V28.1077H124.172V29.4337C124.163 31.1243 124.163 33.4779 123.368 36.7431H129.252C129.815 34.1326 129.906 32.1354 129.923 30.511H125.638V28.1077H132.89V29.5829C132.882 31.3066 132.882 33.6188 132.26 36.7431ZM150.538 26.8149H153.562V48.2127H150.538V26.8149ZM136.772 28.7624H147.073V43.0746H136.772V28.7624ZM144.173 31.0912H139.747V40.7044H144.173V31.0912ZM170.746 48.163V26.8149H173.771V48.163H170.746ZM157.064 29.0608H167.381C167.373 35.5249 165.102 40.9033 157.478 44.5L155.92 42.1215C161.423 39.511 163.851 36.1464 164.332 31.4061H157.064V29.0608Z" fill="black"/>
<path d="M31.326 68.1381V67.0843H33.7479V59.8715H35.2756V69.221H33.7479V68.1381H31.326ZM28.8847 64.6768C27.0573 64.6768 25.7956 63.8356 25.7956 62.511C25.7956 61.2058 27.0525 60.3163 28.8847 60.3211C30.6878 60.3163 31.9544 61.2058 31.9641 62.511C31.9544 63.8356 30.6878 64.6768 28.8847 64.6768ZM28.8847 61.4427C27.8985 61.4378 27.2314 61.8391 27.241 62.511C27.2314 63.183 27.8985 63.5698 28.8847 63.5698C29.8322 63.5698 30.5041 63.183 30.5138 62.511C30.5041 61.8391 29.8322 61.4378 28.8847 61.4427ZM29.7935 68.8778H28.2659V66.5863C27.1153 66.6347 26.0131 66.6395 25.0414 66.6395L24.8577 65.4261C27.1347 65.4116 30.1996 65.3874 32.8198 65.0539L32.9116 66.1464C31.8964 66.3156 30.8377 66.4268 29.7935 66.5041V68.8778ZM28.0193 68.317V70.7438H35.5608V71.9765H26.4965V68.317H28.0193ZM46.0887 64.7831H47.9934V66.0352H46.0887V72.2086H44.5852V59.8619H46.0887V64.7831ZM39.2627 60.0359H40.7807V61.7521H43.6329V62.98H36.3428V61.7521H39.2627V60.0359ZM40.0314 63.7776C41.8104 63.7776 43.1301 64.9814 43.1398 66.6878C43.1301 68.3943 41.8104 69.5932 40.0314 69.5932C38.2282 69.5932 36.9036 68.3943 36.9133 66.6878C36.9036 64.9814 38.2282 63.7776 40.0314 63.7776ZM40.0314 68.3363C40.9837 68.346 41.675 67.703 41.6847 66.6878C41.675 65.6872 40.9837 65.0249 40.0314 65.0249C39.0645 65.0249 38.3587 65.6872 38.3684 66.6878C38.3587 67.703 39.0645 68.346 40.0314 68.3363ZM50.8687 63.3522H57.9219V64.5559H49.3556V60.3066H50.8687V63.3522ZM47.8956 67.1954V65.9965H59.1933V67.1954H47.8956ZM49.2541 68.288H50.772V70.6954H57.9992V71.9282H49.2541V68.288ZM70.8965 59.8715H72.4193V66.8715H70.8965V59.8715ZM62.7653 60.616H68.7163V66.0932H62.7653V60.616ZM67.2128 61.8391H64.2591V64.8798H67.2128V61.8391ZM64.2252 67.5097H72.4193V72.0635H64.2252V67.5097ZM70.9303 68.6989H65.7239V70.8356H70.9303V68.6989ZM80.0521 64.4496C79.501 65.6001 78.4713 66.4993 77.0162 66.9247L76.2862 65.7258C78.2344 65.1989 79.2786 63.8356 79.2786 62.395V62.3515H76.6923V61.1381H79.2786V59.8087H80.8111V61.1381H83.3732V62.3515H80.7917V62.395C80.7917 63.7148 81.7924 65.0104 83.7406 65.5276L83.059 66.6927C81.6232 66.3108 80.608 65.4938 80.0521 64.4496ZM86.1046 59.8619V62.7286H87.8304V63.9855H86.1046V66.9441H84.5769V59.8619H86.1046ZM86.2786 68.7231H83.0107C83.291 69.7528 84.6785 70.7148 86.7959 71.0097L86.2448 72.1796C84.3111 71.8992 82.8511 71.0725 82.1405 69.9558C81.4298 71.0677 79.9747 71.8798 78.0555 72.1506L77.4996 71C79.6315 70.7099 80.9996 69.7769 81.2848 68.7231H78.012V67.5193H86.2786V68.7231ZM97.4543 68.0173L95.917 67.8529C96.4005 65.4551 96.4053 63.7003 96.4101 62.2113H89.0282V60.9883H97.9377V62.1775C97.9329 63.7148 97.9329 65.4358 97.4543 68.0173ZM93.5192 65.078V69.3757H99.1125V70.6229H87.8535V69.3757H92.0109V65.078H93.5192ZM100.025 70.0138H101.761L100.625 73.8474H99.3193L100.025 70.0138ZM115.408 68.989H113.89V65.7693H112.14V64.5076H113.89V63.3232H112.14V62.0953H113.89V59.8619H115.408V68.989ZM112.222 65.8273L112.285 66.9441C109.945 67.3163 107.204 67.3646 105.236 67.3695L105.067 66.1126C105.502 66.1126 105.976 66.1077 106.469 66.1029V62.0083H105.391V60.7804H111.956V62.0083H110.863V65.9482C111.327 65.9144 111.787 65.8757 112.222 65.8273ZM109.408 62.0083H107.943V66.0787C108.427 66.0691 108.915 66.0546 109.408 66.0304V62.0083ZM108.814 68.2783V70.7438H115.712V71.9765H107.281V68.2783H108.814ZM125.322 66.5573V59.8619H126.844V66.5573H125.322ZM120.492 63.9275C119.936 65.1602 118.877 66.1367 117.408 66.6008L116.634 65.4068C118.616 64.8218 119.69 63.3425 119.709 61.8101H117.05V60.5919H123.852V61.8101H121.251C121.266 63.2555 122.329 64.6526 124.277 65.2037L123.518 66.3881C122.087 65.9675 121.053 65.0732 120.492 63.9275ZM120.173 68.3702H125.331V67.0988H126.844V72.0635H118.679V67.0988H120.173V68.3702ZM120.173 70.8356H125.331V69.5546H120.173V70.8356ZM137.237 64.9475V59.8619H138.682V72.2086H137.237V66.1754H136.023V71.6526H134.597V60.1229H136.023V64.9475H137.237ZM130.324 60.2148H131.827V61.8246H134.085V63.0477H128.032V61.8246H130.324V60.2148ZM131.078 63.6906C132.649 63.6954 133.771 64.8895 133.776 66.5767C133.771 68.2831 132.649 69.482 131.078 69.482C129.512 69.482 128.376 68.2831 128.381 66.5767C128.376 64.8895 129.512 63.6954 131.078 63.6906ZM131.078 68.1865C131.866 68.1913 132.432 67.5725 132.436 66.5767C132.432 65.6001 131.866 64.9572 131.078 64.9572C130.276 64.9572 129.715 65.6001 129.72 66.5767C129.715 67.5725 130.276 68.1913 131.078 68.1865ZM148.408 63.855V59.8619H149.916V72.2376H148.408V65.0829H145.821V63.855H148.408ZM144.12 60.8529V62.8301C144.12 65.1215 145.217 67.3743 147.19 68.2445L146.266 69.4579C144.869 68.7714 143.888 67.4613 143.356 65.8467C142.819 67.5532 141.814 68.9696 140.393 69.6851L139.435 68.4523C141.446 67.5145 142.568 65.1312 142.578 62.8301V60.8529H144.12ZM162.62 64.232V59.8619H164.148V72.2376H162.62V65.4744H160.246V64.232H162.62ZM158.317 62.3128V63.1443C158.313 65.2762 159.473 67.5338 161.46 68.4088L160.561 69.6126C159.125 68.9309 158.1 67.5628 157.558 65.9289C157.017 67.674 155.963 69.1436 154.523 69.8688L153.614 68.6699C155.591 67.7417 156.761 65.4019 156.766 63.1443V62.3128H154.121V61.0801H160.971V62.3128H158.317ZM175.028 59.8619V62.8253H176.754V64.0725H175.028V67.2293H173.501V59.8619H175.028ZM168.981 64.3771C168.434 65.6727 167.395 66.6975 165.911 67.1954L165.138 65.9917C167.129 65.3488 168.173 63.7438 168.183 62.1001V61.9454H165.563V60.7175H172.273V61.9454H169.711V62.0905C169.711 63.5988 170.687 65.02 172.616 65.6098L171.896 66.8039C170.508 66.3688 169.527 65.489 168.981 64.3771ZM171.006 67.5C173.568 67.5 175.14 68.3605 175.14 69.8398C175.14 71.3287 173.568 72.2037 171.006 72.1989C168.42 72.2037 166.82 71.3287 166.825 69.8398C166.82 68.3605 168.42 67.5 171.006 67.5ZM171.006 71.0048C172.698 71.0097 173.646 70.6036 173.646 69.8398C173.646 69.0905 172.698 68.6941 171.006 68.6941C169.309 68.6941 168.338 69.0905 168.343 69.8398C168.338 70.6036 169.309 71.0097 171.006 71.0048ZM186.63 64.7928H188.346V66.0449H186.63V72.2086H185.102V59.8619H186.63V64.7928ZM180.48 61.1575C180.471 64.3964 180.021 67.1229 177.793 69.5352L176.594 68.6796C178.339 66.8329 178.909 64.875 179.03 62.4047H177.092V61.1575H180.48ZM180.891 61.1575H183.898C183.889 64.4786 183.54 67.6547 181.317 70.3377L180.103 69.4917C181.858 67.3936 182.361 65.0829 182.462 62.4047H180.891V61.1575ZM197.027 72.2086V59.8619H198.559V72.2086H197.027ZM192.942 62.3273V63.3667C192.942 65.3971 194.131 67.529 196.118 68.3605L195.291 69.5594C193.831 68.9261 192.758 67.6305 192.193 66.0594C191.627 67.7562 190.544 69.1823 189.094 69.8688L188.219 68.6699C190.172 67.7756 191.385 65.4744 191.395 63.3667V62.3273H188.673V61.0801H195.639V62.3273H192.942ZM212.177 64.6865H214.009V65.9482H212.177V72.1892H210.654V59.8619H212.177V64.6865ZM203.093 61.143H208.914C208.904 64.7735 207.401 67.9641 203.292 69.9848L202.436 68.8149C205.443 67.3066 207.067 65.2086 207.367 62.395H203.093V61.143ZM216.976 63.0718H223.991V64.2997H215.463V60.0746H216.976V63.0718ZM213.998 66.7217V65.4841H225.277V66.7217H213.998ZM219.611 67.616C222.284 67.616 223.889 68.4378 223.894 69.8881C223.889 71.3432 222.284 72.1602 219.611 72.1602C216.928 72.1602 215.308 71.3432 215.308 69.8881C215.308 68.4378 216.928 67.616 219.611 67.616ZM219.611 70.9952C221.385 70.9952 222.366 70.6036 222.376 69.8881C222.366 69.1581 221.385 68.8101 219.611 68.8004C217.817 68.8101 216.846 69.1581 216.855 69.8881C216.846 70.6036 217.817 70.9952 219.611 70.9952ZM236.482 62.04C237.247 62.04 237.882 62.138 238.386 62.334C238.89 62.53 239.263 62.796 239.506 63.132C239.758 63.468 239.884 63.8413 239.884 64.252C239.884 64.6813 239.786 65.05 239.59 65.358C239.403 65.666 239.062 65.9413 238.568 66.184L238.54 66.114C239.044 66.2633 239.417 66.506 239.66 66.842C239.912 67.1687 240.038 67.5513 240.038 67.99C240.038 68.2793 239.972 68.55 239.842 68.802C239.72 69.054 239.538 69.278 239.296 69.474C239.053 69.6607 238.75 69.81 238.386 69.922C238.031 70.0247 237.62 70.076 237.154 70.076H235.432V68.606H236.44C236.794 68.606 237.079 68.5873 237.294 68.55C237.508 68.5127 237.667 68.4427 237.77 68.34C237.844 68.2653 237.896 68.186 237.924 68.102C237.961 68.0087 237.98 67.9013 237.98 67.78C237.98 67.64 237.947 67.514 237.882 67.402C237.816 67.29 237.732 67.2013 237.63 67.136C237.508 67.0613 237.364 67.0053 237.196 66.968C237.028 66.9307 236.762 66.912 236.398 66.912H235.6V65.456H236.286C236.584 65.456 236.836 65.4327 237.042 65.386C237.256 65.33 237.434 65.2367 237.574 65.106C237.648 65.0313 237.709 64.9427 237.756 64.84C237.802 64.728 237.826 64.6067 237.826 64.476C237.826 64.1587 237.709 63.9207 237.476 63.762C237.242 63.594 236.888 63.51 236.412 63.51C235.702 63.51 235.114 63.6593 234.648 63.958C234.181 64.2567 233.831 64.672 233.598 65.204C233.364 65.736 233.248 66.3613 233.248 67.08C233.248 67.528 233.276 67.9853 233.332 68.452C233.397 68.9187 233.49 69.3573 233.612 69.768L231.68 70.132C231.521 69.6653 231.395 69.1473 231.302 68.578C231.208 67.9993 231.162 67.4627 231.162 66.968C231.162 65.9507 231.358 65.078 231.75 64.35C232.151 63.6127 232.744 63.0433 233.528 62.642C234.321 62.2407 235.306 62.04 236.482 62.04ZM236.412 73.604C235.992 73.604 235.576 73.5807 235.166 73.534C234.764 73.4873 234.363 73.408 233.962 73.296C233.56 73.1933 233.154 73.0487 232.744 72.862L233.556 71.518C233.845 71.6487 234.13 71.756 234.41 71.84C234.699 71.9333 234.993 71.9987 235.292 72.036C235.6 72.0733 235.926 72.092 236.272 72.092C236.692 72.092 237.028 72.05 237.28 71.966C237.532 71.882 237.714 71.7653 237.826 71.616C237.938 71.4667 237.994 71.294 237.994 71.098C237.994 70.8553 237.914 70.6453 237.756 70.468C237.597 70.2813 237.378 70.1367 237.098 70.034L238.232 68.872C238.605 68.9933 238.922 69.1567 239.184 69.362C239.454 69.5673 239.664 69.8147 239.814 70.104C239.963 70.3933 240.038 70.734 240.038 71.126C240.038 71.6113 239.912 72.0407 239.66 72.414C239.408 72.7873 239.011 73.0767 238.47 73.282C237.938 73.4967 237.252 73.604 236.412 73.604ZM239.618 58.162C240.029 58.162 240.397 58.204 240.724 58.288C241.051 58.3627 241.34 58.484 241.592 58.652C241.909 58.8573 242.157 59.1047 242.334 59.394C242.521 59.674 242.656 60.0427 242.74 60.5C242.824 60.948 242.866 61.5407 242.866 62.278V70.076H240.794V62.6C240.794 62.1333 240.785 61.7367 240.766 61.41C240.747 61.074 240.71 60.7987 240.654 60.584C240.607 60.36 240.537 60.1827 240.444 60.052C240.351 59.9213 240.239 59.8187 240.108 59.744C239.977 59.6693 239.805 59.632 239.59 59.632C239.431 59.632 239.277 59.6693 239.128 59.744C238.979 59.8093 238.862 59.9167 238.778 60.066C238.685 60.206 238.638 60.388 238.638 60.612C238.638 60.696 238.647 60.7847 238.666 60.878C238.675 60.962 238.689 61.0413 238.708 61.116L236.692 61.354C236.655 61.242 236.627 61.1253 236.608 61.004C236.589 60.8733 236.58 60.738 236.58 60.598C236.58 60.0567 236.715 59.6087 236.986 59.254C237.247 58.89 237.607 58.6193 238.064 58.442C238.521 58.2553 239.039 58.162 239.618 58.162ZM246.052 61.732H253.206V63.216H246.052V61.732ZM249.608 63.86C250.252 63.86 250.826 63.986 251.33 64.238C251.843 64.49 252.245 64.84 252.534 65.288C252.833 65.736 252.982 66.2447 252.982 66.814C252.982 67.402 252.833 67.92 252.534 68.368C252.245 68.8067 251.843 69.1567 251.33 69.418C250.826 69.67 250.252 69.796 249.608 69.796C248.964 69.796 248.385 69.67 247.872 69.418C247.359 69.1567 246.953 68.8067 246.654 68.368C246.365 67.92 246.22 67.402 246.22 66.814C246.22 66.2447 246.365 65.736 246.654 65.288C246.953 64.84 247.359 64.49 247.872 64.238C248.385 63.986 248.964 63.86 249.608 63.86ZM249.608 65.316C249.309 65.316 249.039 65.3767 248.796 65.498C248.553 65.6193 248.362 65.792 248.222 66.016C248.091 66.24 248.026 66.506 248.026 66.814C248.026 67.1313 248.091 67.4067 248.222 67.64C248.362 67.8733 248.553 68.0507 248.796 68.172C249.039 68.2933 249.309 68.354 249.608 68.354C249.916 68.354 250.187 68.2933 250.42 68.172C250.653 68.0507 250.84 67.8733 250.98 67.64C251.12 67.4067 251.19 67.1313 251.19 66.814C251.19 66.506 251.12 66.24 250.98 66.016C250.84 65.792 250.653 65.6193 250.42 65.498C250.187 65.3767 249.916 65.316 249.608 65.316ZM255.355 71H261.746V72.3874H255.355V71ZM263.965 61.732H271.119V63.216H263.965V61.732ZM267.521 63.86C268.165 63.86 268.739 63.986 269.243 64.238C269.757 64.49 270.158 64.84 270.447 65.288C270.746 65.736 270.895 66.2447 270.895 66.814C270.895 67.402 270.746 67.92 270.447 68.368C270.158 68.8067 269.757 69.1567 269.243 69.418C268.739 69.67 268.165 69.796 267.521 69.796C266.877 69.796 266.299 69.67 265.785 69.418C265.272 69.1567 264.866 68.8067 264.567 68.368C264.278 67.92 264.133 67.402 264.133 66.814C264.133 66.2447 264.278 65.736 264.567 65.288C264.866 64.84 265.272 64.49 265.785 64.238C266.299 63.986 266.877 63.86 267.521 63.86ZM267.521 65.316C267.223 65.316 266.952 65.3767 266.709 65.498C266.467 65.6193 266.275 65.792 266.135 66.016C266.005 66.24 265.939 66.506 265.939 66.814C265.939 67.1313 266.005 67.4067 266.135 67.64C266.275 67.8733 266.467 68.0507 266.709 68.172C266.952 68.2933 267.223 68.354 267.521 68.354C267.829 68.354 268.1 68.2933 268.333 68.172C268.567 68.0507 268.753 67.8733 268.893 67.64C269.033 67.4067 269.103 67.1313 269.103 66.814C269.103 66.506 269.033 66.24 268.893 66.016C268.753 65.792 268.567 65.6193 268.333 65.498C268.1 65.3767 267.829 65.316 267.521 65.316ZM277.301 66.9586C277.301 69.3757 276.658 71.3819 275.386 73.1029H273.752C274.729 71.8267 275.493 69.2548 275.493 66.9586C275.493 64.6671 274.729 62.0905 273.752 60.8142H275.386C276.658 62.5352 277.301 64.5463 277.301 66.9586Z" fill="black"/>
</g>
<defs>
<linearGradient id="paint0_linear_896_17073" x1="21" y1="-8.00002" x2="327.5" y2="295.5" gradientUnits="userSpaceOnUse">
<stop stop-color="#FFB0EA"/>
<stop offset="1" stop-color="#FD2DC3"/>
</linearGradient>
<linearGradient id="paint1_linear_896_17073" x1="142.5" y1="90" x2="211" y2="290" gradientUnits="userSpaceOnUse">
<stop stop-color="white" stop-opacity="0.4"/>
<stop offset="1" stop-color="white"/>
</linearGradient>
<linearGradient id="paint2_linear_896_17073" x1="290.5" y1="120" x2="153" y2="218.5" gradientUnits="userSpaceOnUse">
<stop stop-color="white" stop-opacity="0"/>
<stop offset="1" stop-color="white"/>
</linearGradient>
<clipPath id="clip0_896_17073">
<rect x="0.5" width="327" height="218" rx="10" fill="white"/>
</clipPath>
<clipPath id="clip1_896_17073">
<rect x="0.689453" width="327" height="218" rx="10" fill="white"/>
</clipPath>
<clipPath id="clip2_896_17073">
<rect width="52" height="52" fill="white" transform="translate(50.5 129)"/>
</clipPath>
<clipPath id="clip3_896_17073">
<rect width="54" height="54" fill="white" transform="translate(137.5 128)"/>
</clipPath>
<clipPath id="clip4_896_17073">
<rect width="54" height="54" fill="white" transform="translate(225.5 128)"/>
</clipPath>
</defs>
</svg>
