<svg width="88" height="88" viewBox="0 0 88 88" fill="none" xmlns="http://www.w3.org/2000/svg">
<g clip-path="url(#clip0_922_17431)">
<rect width="88" height="88" rx="16" fill="black"/>
<g filter="url(#filter0_d_922_17431)">
<path d="M75.0713 69.8675C75.0713 72.4427 72.9837 74.5303 70.4085 74.5303H66.4266C64.927 74.5303 63.5189 73.809 62.6427 72.592L60.184 69.1772C58.3233 66.5928 54.4768 66.5928 52.6161 69.1772L50.1574 72.592C49.2812 73.809 47.8731 74.5303 46.3734 74.5303H42.6634C41.1637 74.5303 39.7556 73.809 38.8794 72.5919L36.4208 69.1771C34.56 66.5927 30.7135 66.5927 28.8527 69.1771L26.3941 72.592C25.5179 73.809 24.1098 74.5303 22.6101 74.5303H18.2038C15.6286 74.5303 13.541 72.4427 13.541 69.8675V17.6628C13.541 15.0876 15.6286 13 18.2038 13H34.4917C35.9913 13 37.3994 13.7213 38.2756 14.9383L40.7343 18.3531C42.595 20.9374 46.4415 20.9374 48.3022 18.3531L50.7609 14.9383C51.6371 13.7213 53.0452 13 54.5449 13H70.4085C72.9837 13 75.0713 15.0876 75.0713 17.6628V69.8675Z" fill="white"/>
</g>
<path d="M29.9851 34.1969C30.3155 33.3592 31.5012 33.3592 31.8316 34.1969L33.9783 39.6399C34.0791 39.8957 34.2816 40.0982 34.5374 40.199L39.9804 42.3457C40.8181 42.6761 40.8182 43.8618 39.9804 44.1922L34.5374 46.3389C34.2816 46.4397 34.0791 46.6422 33.9783 46.898L31.8316 52.341C31.5012 53.1787 30.3155 53.1787 29.9851 52.341L27.8384 46.898C27.7376 46.6422 27.5351 46.4397 27.2793 46.3389L21.8363 44.1922C20.9986 43.8618 20.9986 42.6761 21.8363 42.3457L27.2793 40.199C27.5351 40.0982 27.7376 39.8957 27.8384 39.6399L29.9851 34.1969Z" fill="#FF4242"/>
<path d="M57.0262 34.1969C57.3566 33.3592 58.5422 33.3592 58.8726 34.1969L61.0193 39.6399C61.1202 39.8957 61.3226 40.0982 61.5784 40.199L67.0214 42.3457C67.8592 42.6761 67.8592 43.8618 67.0214 44.1922L61.5784 46.3389C61.3226 46.4397 61.1202 46.6422 61.0193 46.898L58.8726 52.341C58.5422 53.1787 57.3566 53.1787 57.0262 52.341L54.8795 46.898C54.7786 46.6422 54.5761 46.4397 54.3204 46.3389L48.8773 44.1922C48.0396 43.8618 48.0396 42.6761 48.8773 42.3457L54.3204 40.199C54.5761 40.0982 54.7786 39.8957 54.8795 39.6399L57.0262 34.1969Z" fill="#FF4242"/>
</g>
<defs>
<filter id="filter0_d_922_17431" x="-20.2014" y="-20.7425" width="129.015" height="129.015" filterUnits="userSpaceOnUse" color-interpolation-filters="sRGB">
<feFlood flood-opacity="0" result="BackgroundImageFix"/>
<feColorMatrix in="SourceAlpha" type="matrix" values="0 0 0 0 0 0 0 0 0 0 0 0 0 0 0 0 0 0 127 0" result="hardAlpha"/>
<feOffset/>
<feGaussianBlur stdDeviation="16.8712"/>
<feComposite in2="hardAlpha" operator="out"/>
<feColorMatrix type="matrix" values="0 0 0 0 0.886275 0 0 0 0 0.117647 0 0 0 0 0.258824 0 0 0 1 0"/>
<feBlend mode="normal" in2="BackgroundImageFix" result="effect1_dropShadow_922_17431"/>
<feBlend mode="normal" in="SourceGraphic" in2="effect1_dropShadow_922_17431" result="shape"/>
</filter>
<clipPath id="clip0_922_17431">
<rect width="88" height="88" rx="16" fill="white"/>
</clipPath>
</defs>
</svg>
