<svg width="328" height="218" viewBox="0 0 328 218" fill="none" xmlns="http://www.w3.org/2000/svg">
<g clip-path="url(#clip0_896_17144)">
<rect x="0.5" width="327" height="218" rx="10" fill="#FEEEE5"/>
<g clip-path="url(#clip1_896_17144)">
<rect x="16.5" y="95.0422" width="91.456" height="91.456" rx="45.728" fill="black"/>
<g filter="url(#filter0_ii_896_17144)">
<path d="M90.2003 184.312C90.2003 195.152 81.4123 203.94 70.5717 203.94H53.2771C42.4365 203.94 33.6484 195.152 33.6484 184.312V134.435C33.6484 129.647 37.5301 125.766 42.3183 125.766C44.6776 125.766 46.935 126.727 48.5697 128.428L50.4794 130.416C56.4372 136.616 66.3562 136.616 72.314 130.416L74.0052 128.656C75.7795 126.809 78.2296 125.766 80.7904 125.766C85.9873 125.766 90.2003 129.979 90.2003 135.176V184.312Z" fill="url(#paint0_linear_896_17144)"/>
</g>
<g filter="url(#filter1_ii_896_17144)">
<path d="M48.9768 142.155C49.2946 141.349 50.4349 141.349 50.7526 142.155L52.4177 146.377C52.5147 146.623 52.7094 146.818 52.9554 146.915L57.1773 148.58C57.983 148.897 57.983 150.038 57.1773 150.355L52.9554 152.021C52.7094 152.118 52.5147 152.312 52.4177 152.558L50.7526 156.78C50.4349 157.586 49.2946 157.586 48.9768 156.78L47.3117 152.558C47.2147 152.312 47.02 152.118 46.774 152.021L42.5521 150.355C41.7464 150.038 41.7464 148.897 42.5521 148.58L46.774 146.915C47.02 146.818 47.2147 146.623 47.3117 146.377L48.9768 142.155Z" fill="black"/>
</g>
<g filter="url(#filter2_ii_896_17144)">
<path d="M73.0959 142.155C73.4137 141.349 74.554 141.349 74.8718 142.155L76.5368 146.377C76.6339 146.623 76.8286 146.818 77.0746 146.915L81.2964 148.58C82.1021 148.897 82.1021 150.038 81.2964 150.355L77.0746 152.021C76.8286 152.118 76.6339 152.312 76.5368 152.558L74.8718 156.78C74.554 157.586 73.4137 157.586 73.0959 156.78L71.4309 152.558C71.3338 152.312 71.1391 152.118 70.8931 152.021L66.6713 150.355C65.8655 150.038 65.8655 148.897 66.6713 148.58L70.8931 146.915C71.1391 146.818 71.3338 146.623 71.4309 146.377L73.0959 142.155Z" fill="black"/>
</g>
</g>
<path d="M352.66 261L73.6602 156.971L73.6602 141.579L352.66 41L352.66 261Z" fill="url(#paint1_linear_896_17144)"/>
<mask id="mask0_896_17144" style="mask-type:alpha" maskUnits="userSpaceOnUse" x="73" y="41" width="280" height="220">
<path d="M352.66 261L73.6602 156.971L73.6602 141.579L352.66 41L352.66 261Z" fill="url(#paint2_linear_896_17144)"/>
</mask>
<g mask="url(#mask0_896_17144)">
<path d="M115.284 51C117.105 51 118.779 51.9981 119.645 53.5996L119.849 53.9783C120.369 54.9392 121.373 55.5381 122.465 55.5381H136.219C139.504 55.5381 142.167 58.2013 142.167 61.4863V81.3564C142.167 84.6413 139.504 87.3037 136.219 87.3037H106.448C103.163 87.3037 100.5 84.6413 100.5 81.3564V61.4863C100.5 61.4558 100.501 61.425 100.502 61.3945C100.501 61.3656 100.5 61.3367 100.5 61.3076V55.957C100.5 53.2195 102.72 51 105.457 51H115.284Z" fill="black"/>
<path d="M169.343 51C171.163 51 172.837 51.9981 173.703 53.5996L173.908 53.9783C174.427 54.9393 175.432 55.5381 176.524 55.5381H190.277C193.562 55.5381 196.226 58.2013 196.226 61.4863V81.3565C196.225 84.6413 193.562 87.3037 190.277 87.3037H160.507C157.222 87.3037 154.559 84.6413 154.559 81.3565V61.4863C154.559 61.4558 154.56 61.425 154.561 61.3945C154.56 61.3656 154.559 61.3367 154.559 61.3076V55.957C154.559 53.2195 156.778 51 159.516 51H169.343Z" fill="black"/>
<path d="M223.401 51C225.222 51 226.896 51.9981 227.762 53.5996L227.966 53.9783C228.486 54.9393 229.49 55.5381 230.583 55.5381H244.336C247.621 55.5381 250.284 58.2013 250.284 61.4863V81.3565C250.284 84.6413 247.621 87.3037 244.336 87.3037H214.565C211.281 87.3037 208.617 84.6413 208.617 81.3565V61.4863C208.617 61.4558 208.619 61.425 208.619 61.3945C208.619 61.3656 208.617 61.3367 208.617 61.3076V55.957C208.617 53.2195 210.837 51 213.574 51H223.401Z" fill="black"/>
<path d="M277.28 51C279.101 51 280.775 51.9981 281.641 53.5996L281.845 53.9783C282.365 54.9393 283.369 55.5381 284.462 55.5381H298.215C301.5 55.5381 304.163 58.2013 304.163 61.4863V81.3565C304.163 84.6413 301.5 87.3037 298.215 87.3037H268.444C265.159 87.3037 262.496 84.6413 262.496 81.3565V61.4863C262.496 61.4558 262.498 61.425 262.498 61.3945C262.498 61.3656 262.496 61.3367 262.496 61.3076V55.957C262.496 53.2195 264.716 51 267.453 51H277.28Z" fill="black"/>
<path d="M331.157 51C332.978 51 334.652 51.9981 335.518 53.5996L335.722 53.9783C336.242 54.9393 337.246 55.5381 338.339 55.5381H352.092C355.377 55.5381 358.04 58.2013 358.04 61.4863V81.3565C358.04 84.6413 355.377 87.3037 352.092 87.3037H322.321C319.036 87.3037 316.373 84.6413 316.373 81.3565V61.4863C316.373 61.4558 316.375 61.425 316.375 61.3945C316.375 61.3656 316.373 61.3367 316.373 61.3076V55.957C316.373 53.2195 318.593 51 321.33 51H331.157Z" fill="black"/>
<path d="M115.284 104.157C117.105 104.157 118.779 105.155 119.645 106.756L119.849 107.135C120.369 108.096 121.373 108.695 122.465 108.695H136.219C139.504 108.695 142.167 111.358 142.167 114.643V134.513C142.167 137.798 139.504 140.461 136.219 140.461H106.448C103.163 140.461 100.5 137.798 100.5 134.513V114.643C100.5 114.613 100.501 114.582 100.502 114.551C100.501 114.522 100.5 114.493 100.5 114.464V109.114C100.5 106.376 102.72 104.157 105.457 104.157H115.284Z" fill="black"/>
<path d="M223.401 104.157C225.222 104.157 226.896 105.155 227.762 106.756L227.966 107.135C228.486 108.096 229.49 108.695 230.583 108.695H244.336C247.621 108.695 250.284 111.358 250.284 114.643V134.513C250.284 137.798 247.621 140.461 244.336 140.461H214.565C211.281 140.461 208.617 137.798 208.617 134.513V114.643C208.617 114.613 208.619 114.582 208.619 114.551C208.619 114.522 208.617 114.493 208.617 114.464V109.114C208.617 106.376 210.837 104.157 213.574 104.157H223.401Z" fill="black"/>
<path d="M169.343 104.157C171.163 104.157 172.837 105.155 173.703 106.756L173.908 107.135C174.427 108.096 175.432 108.695 176.524 108.695H190.277C193.562 108.695 196.226 111.358 196.226 114.643V134.513C196.225 137.798 193.562 140.461 190.277 140.461H160.507C157.222 140.461 154.559 137.798 154.559 134.513V114.643C154.559 114.613 154.56 114.582 154.561 114.551C154.56 114.522 154.559 114.493 154.559 114.464V109.114C154.559 106.376 156.778 104.157 159.516 104.157H169.343Z" fill="black"/>
<path d="M277.28 104.157C279.101 104.157 280.775 105.155 281.641 106.756L281.845 107.135C282.365 108.096 283.369 108.695 284.462 108.695H298.215C301.5 108.695 304.163 111.358 304.163 114.643V134.513C304.163 137.798 301.5 140.461 298.215 140.461H268.444C265.159 140.461 262.496 137.798 262.496 134.513V114.643C262.496 114.613 262.498 114.582 262.498 114.551C262.498 114.522 262.496 114.493 262.496 114.464V109.114C262.496 106.376 264.716 104.157 267.453 104.157H277.28Z" fill="black"/>
<path d="M331.157 104.157C332.978 104.157 334.652 105.155 335.518 106.756L335.722 107.135C336.242 108.096 337.246 108.695 338.339 108.695H352.092C355.377 108.695 358.04 111.358 358.04 114.643V134.513C358.04 137.798 355.377 140.461 352.092 140.461H322.321C319.036 140.461 316.373 137.798 316.373 134.513V114.643C316.373 114.613 316.375 114.582 316.375 114.551C316.375 114.522 316.373 114.493 316.373 114.464V109.114C316.373 106.376 318.593 104.157 321.33 104.157H331.157Z" fill="black"/>
<path d="M115.284 157.314C117.105 157.314 118.779 158.312 119.645 159.913L119.849 160.292C120.369 161.253 121.373 161.852 122.465 161.852H136.219C139.504 161.852 142.167 164.515 142.167 167.8V187.67C142.167 190.955 139.504 193.617 136.219 193.617H106.448C103.163 193.617 100.5 190.955 100.5 187.67V167.8C100.5 167.769 100.501 167.739 100.502 167.708C100.501 167.679 100.5 167.65 100.5 167.621V162.271C100.5 159.533 102.72 157.314 105.457 157.314H115.284Z" fill="black"/>
<path d="M115.284 210.606C117.105 210.606 118.779 211.604 119.645 213.206L119.849 213.584C120.369 214.545 121.373 215.144 122.465 215.144H136.219C139.504 215.144 142.167 217.807 142.167 221.092V240.962C142.167 244.247 139.504 246.91 136.219 246.91H106.448C103.163 246.91 100.5 244.247 100.5 240.962V221.092C100.5 221.062 100.501 221.031 100.502 221.001C100.501 220.972 100.5 220.943 100.5 220.914V215.563C100.5 212.826 102.72 210.606 105.457 210.606H115.284Z" fill="black"/>
<path d="M223.401 157.314C225.222 157.314 226.896 158.312 227.762 159.913L227.966 160.292C228.486 161.253 229.49 161.852 230.583 161.852H244.336C247.621 161.852 250.284 164.515 250.284 167.8V187.67C250.284 190.955 247.621 193.617 244.336 193.617H214.565C211.281 193.617 208.617 190.955 208.617 187.67V167.8C208.617 167.769 208.619 167.739 208.619 167.708C208.619 167.679 208.617 167.65 208.617 167.621V162.271C208.617 159.533 210.837 157.314 213.574 157.314H223.401Z" fill="black"/>
<path d="M223.401 210.606C225.222 210.606 226.896 211.604 227.762 213.206L227.966 213.584C228.486 214.545 229.49 215.144 230.583 215.144H244.336C247.621 215.144 250.284 217.807 250.284 221.092V240.962C250.284 244.247 247.621 246.91 244.336 246.91H214.565C211.28 246.91 208.617 244.247 208.617 240.962V221.092C208.617 221.062 208.619 221.031 208.619 221.001C208.619 220.972 208.617 220.943 208.617 220.914V215.563C208.617 212.826 210.837 210.606 213.574 210.606H223.401Z" fill="black"/>
<path d="M169.343 157.314C171.163 157.314 172.837 158.312 173.703 159.913L173.908 160.292C174.427 161.253 175.432 161.852 176.524 161.852H190.277C193.562 161.852 196.226 164.515 196.226 167.8V187.67C196.225 190.955 193.562 193.617 190.277 193.617H160.507C157.222 193.617 154.559 190.955 154.559 187.67V167.8C154.559 167.769 154.56 167.739 154.561 167.708C154.56 167.679 154.559 167.65 154.559 167.621V162.271C154.559 159.533 156.778 157.314 159.516 157.314H169.343Z" fill="black"/>
<path d="M169.343 210.606C171.163 210.606 172.837 211.604 173.703 213.206L173.908 213.584C174.427 214.545 175.432 215.144 176.524 215.144H190.277C193.562 215.144 196.226 217.807 196.226 221.092V240.962C196.226 244.247 193.562 246.91 190.277 246.91H160.507C157.222 246.91 154.559 244.247 154.559 240.962V221.092C154.559 221.062 154.56 221.031 154.561 221.001C154.56 220.972 154.559 220.943 154.559 220.914V215.563C154.559 212.826 156.778 210.606 159.516 210.606H169.343Z" fill="black"/>
<path d="M277.28 157.314C279.101 157.314 280.775 158.312 281.641 159.913L281.845 160.292C282.365 161.253 283.369 161.852 284.462 161.852H298.215C301.5 161.852 304.163 164.515 304.163 167.8V187.67C304.163 190.955 301.5 193.617 298.215 193.617H268.444C265.159 193.617 262.496 190.955 262.496 187.67V167.8C262.496 167.769 262.498 167.739 262.498 167.708C262.498 167.679 262.496 167.65 262.496 167.621V162.271C262.496 159.533 264.716 157.314 267.453 157.314H277.28Z" fill="black"/>
<path d="M331.157 157.314C332.978 157.314 334.652 158.312 335.518 159.913L335.722 160.292C336.242 161.253 337.246 161.852 338.339 161.852H352.092C355.377 161.852 358.04 164.515 358.04 167.8V187.67C358.04 190.955 355.377 193.617 352.092 193.617H322.321C319.036 193.617 316.373 190.955 316.373 187.67V167.8C316.373 167.769 316.375 167.739 316.375 167.708C316.375 167.679 316.373 167.65 316.373 167.621V162.271C316.373 159.533 318.593 157.314 321.33 157.314H331.157Z" fill="black"/>
<path d="M277.28 210.606C279.101 210.606 280.775 211.604 281.641 213.206L281.845 213.584C282.365 214.545 283.369 215.144 284.462 215.144H298.215C301.5 215.144 304.163 217.807 304.163 221.092V240.962C304.163 244.247 301.5 246.91 298.215 246.91H268.444C265.159 246.91 262.496 244.247 262.496 240.962V221.092C262.496 221.062 262.498 221.031 262.498 221.001C262.498 220.972 262.496 220.943 262.496 220.914V215.563C262.496 212.826 264.716 210.606 267.453 210.606H277.28Z" fill="black"/>
<path d="M331.157 210.606C332.978 210.606 334.652 211.604 335.518 213.206L335.722 213.584C336.242 214.545 337.246 215.144 338.339 215.144H352.092C355.377 215.144 358.04 217.807 358.04 221.092V240.962C358.04 244.247 355.377 246.91 352.092 246.91H322.321C319.036 246.91 316.373 244.247 316.373 240.962V221.092C316.373 221.062 316.375 221.031 316.375 221.001C316.375 220.972 316.373 220.943 316.373 220.914V215.563C316.373 212.826 318.593 210.606 321.33 210.606H331.157Z" fill="black"/>
</g>
<path d="M29.4558 46H25.9337V29.0276H29.4558V36.0552H36.8066V29.0276H40.337V46H36.8066V38.9641H29.4558V46ZM48.2591 46.2486C44.4055 46.2486 42.0022 43.605 42.0022 39.6851C42.0022 35.7403 44.4055 33.105 48.2591 33.105C52.1044 33.105 54.4994 35.7403 54.4994 39.6851C54.4994 43.605 52.1044 46.2486 48.2591 46.2486ZM48.2756 43.5552C50.0491 43.5552 50.9773 41.8978 50.9773 39.6602C50.9773 37.4309 50.0491 35.7569 48.2756 35.7569C46.4607 35.7569 45.5326 37.4309 45.5326 39.6602C45.5326 41.8978 46.4607 43.5552 48.2756 43.5552ZM54.9156 33.2707H58.5123L60.8659 37.7459L63.2858 33.2707H66.8659L63.1532 39.6354L66.9571 46H63.4018L60.8659 41.5746L58.3797 46H54.783L58.5786 39.6354L54.9156 33.2707ZM70.2775 50.7735C69.6062 50.7735 68.9681 50.7569 68.5123 50.7155L68.5206 48.0138C68.9598 48.047 69.4902 48.0552 69.9211 48.0552C70.6173 48.0552 71.1725 47.9972 71.5952 46.895L71.7941 46.3564L67.2195 33.2707H70.8742L73.5427 42.6519H73.6753L76.3686 33.2707H80.0399L75.0758 47.4006C74.3548 49.4558 72.9626 50.7735 70.2775 50.7735ZM82.3723 46.2072C81.2867 46.2072 80.3834 45.3287 80.3999 44.2431C80.3834 43.1657 81.2867 42.2873 82.3723 42.2873C83.4165 42.2873 84.3281 43.1657 84.3364 44.2431C84.3281 45.3287 83.4165 46.2072 82.3723 46.2072ZM88.5458 46.2072C87.4601 46.2072 86.5568 45.3287 86.5734 44.2431C86.5568 43.1657 87.4601 42.2873 88.5458 42.2873C89.59 42.2873 90.5016 43.1657 90.5098 44.2431C90.5016 45.3287 89.59 46.2072 88.5458 46.2072ZM94.7192 46.2072C93.6336 46.2072 92.7302 45.3287 92.7468 44.2431C92.7302 43.1657 93.6336 42.2873 94.7192 42.2873C95.7634 42.2873 96.675 43.1657 96.6833 44.2431C96.675 45.3287 95.7634 46.2072 94.7192 46.2072ZM117.15 26.8481H120.15V38.8978H117.15V26.8481ZM103.376 28.0994H113.794V37.6547H103.376V28.0994ZM110.835 30.4862H106.318V35.2928H110.835V30.4862ZM105.854 39.9503H120.15V47.9227H105.854V39.9503ZM117.216 42.2707H108.805V45.5276H117.216V42.2707ZM133.762 35.0028C132.817 36.884 131.11 38.3591 128.616 39.0552L127.198 36.7017C130.613 35.8066 132.204 33.5608 132.245 31.2486H127.953V28.8867H132.245V26.7403H135.262V28.8867H139.522V31.2486H135.229C135.27 33.3619 136.803 35.5083 140.218 36.3785L138.9 38.6575C136.431 38.0359 134.732 36.7099 133.762 35.0028ZM144.295 26.8149V31.6133H147.163V34.0746H144.295V38.9807H141.295V26.8149H144.295ZM144.552 42.2459H139.124C139.671 43.8204 141.776 45.3453 145.489 45.826L144.419 48.1133C140.997 47.6575 138.585 46.2901 137.359 44.4503C136.132 46.2818 133.737 47.616 130.339 48.0635L129.262 45.8011C133.008 45.337 135.088 43.8536 135.635 42.2459H130.182V39.8923H144.552V42.2459ZM164.23 40.9033L161.214 40.5884C162.026 36.5525 162.067 33.5525 162.084 31.0497H149.52V28.6713H165.084V30.6934C165.075 33.3619 165.075 36.3619 164.23 40.9033ZM157.443 35.7818V43.116H166.973V45.5442H147.515V43.116H154.476V35.7818H157.443ZM187.439 26.8481H190.439V38.8978H187.439V26.8481ZM178.746 38.1519C175.414 38.1602 172.903 36.0304 172.911 33.0552C172.903 30.0387 175.414 27.9254 178.746 27.9254C182.069 27.9254 184.572 30.0387 184.572 33.0552C184.572 36.0304 182.069 38.1602 178.746 38.1519ZM178.746 30.4365C177.038 30.4365 175.82 31.4144 175.837 33.0552C175.82 34.6713 177.038 35.674 178.746 35.674C180.411 35.674 181.621 34.6713 181.621 33.0552C181.621 31.4144 180.411 30.4365 178.746 30.4365ZM188.284 39.7762V40.5055C188.268 42.7431 189.453 44.7983 192.287 45.6768L190.837 47.8398C188.798 47.1602 187.464 45.8591 186.718 44.2099C186.022 45.8591 184.779 47.2845 182.873 48.0304C180.867 47.3094 179.616 45.9254 178.92 44.2845C178.157 45.8757 176.848 47.1602 174.892 47.8398L173.425 45.6768C176.226 44.7072 177.42 42.5939 177.436 40.5055V39.7762H180.345V40.5055C180.345 42.2293 181.066 44.0028 182.798 45.1713C184.563 43.9282 185.334 42.0967 185.342 40.5055V39.7762H188.284ZM207.689 48.163V26.8149H210.664V48.163H207.689ZM196.833 28.8619V40.3398C199.708 40.2901 202.808 40.0249 205.94 39.4116L206.313 41.8812C202.576 42.6602 199.045 42.9006 195.755 42.8923H193.874V28.8619H196.833ZM219.693 40.9199H216.593V40.6547C216.61 37.7376 217.397 36.8425 218.79 35.9641C219.809 35.3177 220.588 34.5884 220.588 33.4945C220.588 32.3343 219.676 31.5718 218.533 31.5718C217.447 31.5718 216.436 32.3011 216.378 33.6685H213.047C213.113 30.3785 215.566 28.7956 218.558 28.7956C221.831 28.7956 224.143 30.4945 224.143 33.3867C224.143 35.3177 223.149 36.5442 221.599 37.4724C220.29 38.2597 219.701 39.0221 219.693 40.6547V40.9199ZM218.21 46.2072C217.124 46.2072 216.229 45.3287 216.245 44.2431C216.229 43.1657 217.124 42.2873 218.21 42.2873C219.262 42.2873 220.174 43.1657 220.182 44.2431C220.174 45.3287 219.262 46.2072 218.21 46.2072Z" fill="black"/>
<path d="M36.4213 62.8108V64.087H34.5891V66.4655H36.4213V67.7079H34.5891V72.2086H33.0663V59.8619H34.5891V62.8108H36.4213ZM28.2272 60.7562C30.0932 60.761 31.4323 62.453 31.442 65.1215C31.4323 67.8094 30.0932 69.5014 28.2272 69.4965C26.3564 69.5014 25.0124 67.8094 25.0173 65.1215C25.0124 62.453 26.3564 60.761 28.2272 60.7562ZM28.2272 68.1236C29.2811 68.1236 29.9772 67.0214 29.9772 65.1215C29.9772 63.2362 29.2811 62.1291 28.2272 62.1291C27.1927 62.1291 26.4772 63.2362 26.482 65.1215C26.4772 67.0214 27.1927 68.1236 28.2272 68.1236ZM37.0825 70.0138H38.818L37.6819 73.8474H36.3767L37.0825 70.0138ZM50.9663 63.768V59.8619H52.4843V72.2376H50.9663V65.0007H47.4373V63.768H50.9663ZM44.2951 61.2058V68.0269C45.9581 68.0028 47.5969 67.8819 49.3372 67.5387L49.5064 68.7859C47.5195 69.1968 45.6728 69.3032 43.7778 69.2983H42.7674V61.2058H44.2951ZM59.9908 66.683V69.5062H64.9121V70.7535H53.6144V69.5062H58.4825V66.683H54.9825V60.7756H63.5488V61.9938H56.5053V65.4744H63.6455V66.683H59.9908ZM76.6008 59.8715H78.1236V66.8715H76.6008V59.8715ZM68.4696 60.616H74.4206V66.0932H68.4696V60.616ZM72.9171 61.8391H69.9634V64.8798H72.9171V61.8391ZM69.9295 67.5097H78.1236V72.0635H69.9295V67.5097ZM76.6346 68.6989H71.4282V70.8356H76.6346V68.6989ZM89.0866 59.8619V62.3854H90.8124V63.6181H89.0866V66.2093H87.559V59.8619H89.0866ZM83.0099 63.739C82.4637 64.962 81.4098 65.9144 79.8967 66.3494L79.1522 65.1602C81.1439 64.5801 82.193 63.154 82.2123 61.6844H79.6018V60.4855H86.3069V61.6844H83.7496C83.7689 63.0283 84.7889 64.3336 86.713 64.8847L85.9975 66.0546C84.5859 65.663 83.5707 64.817 83.0099 63.739ZM89.0866 69.8736H82.5169V70.9227H89.4733V72.0925H81.0182V68.7956H87.5686V67.8771H80.9989V66.712H89.0866V69.8736ZM100.586 59.8619V62.3467H102.312V63.6036H100.586V66.0691H99.0586V59.8619H100.586ZM94.2582 65.808C92.3728 65.8128 90.9612 64.6575 90.9709 63.038C90.9612 61.3992 92.3728 60.268 94.2582 60.2631C96.1339 60.268 97.5261 61.3992 97.531 63.038C97.5261 64.6575 96.1339 65.8128 94.2582 65.808ZM92.455 63.038C92.4453 63.9807 93.2091 64.5994 94.2582 64.5994C95.2927 64.5994 96.0517 63.9807 96.0565 63.038C96.0517 62.105 95.2927 61.5007 94.2582 61.5055C93.2091 61.5007 92.4453 62.105 92.455 63.038ZM100.586 69.8398H94.0165V70.8598H100.973V72.0635H92.5178V68.7327H99.0683V67.7756H92.4985V66.596H100.586V69.8398ZM113.87 59.8715H115.379V66.4171H113.87V59.8715ZM113.073 64.7638L113.145 65.7935C110.53 66.1899 107.653 66.2528 105.309 66.2528L105.125 65.078C106.155 65.078 107.276 65.0684 108.427 65.0394V64.0435H106.232V60.3791H112.125V61.5249H107.794V62.8736H112.251V64.0435H109.964V64.9862C111.023 64.9378 112.077 64.8702 113.073 64.7638ZM108.543 70.0186V70.8985H115.736V72.107H107.049V68.9019H113.88V68.0801H107.02V66.8957H115.379V70.0186H108.543ZM124.921 62.8446C124.109 64.2417 122.446 65.2714 120.367 65.5808L119.763 64.3529C122.378 64.0145 124.118 62.4482 124.118 60.8867V60.2535H125.714V60.8867C125.714 62.4385 127.459 64.0145 130.089 64.3529L129.489 65.5808C127.391 65.2714 125.723 64.2417 124.921 62.8446ZM119.279 66.654H130.538V67.9061H125.631V72.2086H124.128V67.9061H119.279V66.654ZM142.266 59.8715H143.788V66.8715H142.266V59.8715ZM137.054 66.393C135.145 66.3978 133.719 65.1844 133.724 63.4731C133.719 61.7327 135.145 60.529 137.054 60.529C138.959 60.529 140.38 61.7327 140.38 63.4731C140.38 65.1844 138.959 66.3978 137.054 66.393ZM137.054 61.8101C135.976 61.8052 135.203 62.453 135.208 63.4731C135.203 64.4786 135.976 65.1312 137.054 65.1312C138.113 65.1312 138.887 64.4786 138.887 63.4731C138.887 62.453 138.113 61.8052 137.054 61.8101ZM142.498 67.3936V67.9012C142.488 69.1872 143.252 70.4054 144.881 70.9227L144.137 72.0297C142.938 71.6236 142.135 70.8356 141.705 69.8494C141.308 70.826 140.583 71.6913 139.462 72.1409C138.287 71.7058 137.552 70.8743 137.161 69.893C136.716 70.8405 135.928 71.6188 134.777 72.0297L134.028 70.9227C135.633 70.357 136.402 69.1001 136.411 67.9012V67.3936H137.891V67.9012C137.891 68.9309 138.36 69.9993 139.423 70.6761C140.496 69.9558 140.999 68.8343 140.999 67.9012V67.3936H142.498ZM153.852 64.4061V59.8619H155.361V72.2376H153.852V65.634H151.517C151.358 68.0221 150.096 69.5014 148.375 69.4965C146.519 69.5014 145.199 67.8094 145.209 65.1215C145.199 62.453 146.519 60.761 148.375 60.7562C150.048 60.761 151.285 62.1533 151.503 64.4061H153.852ZM148.375 68.1236C149.4 68.1236 150.091 67.0214 150.096 65.1215C150.091 63.2362 149.4 62.1291 148.375 62.1291C147.36 62.1291 146.659 63.2362 146.664 65.1215C146.659 67.0214 147.36 68.1236 148.375 68.1236Z" fill="black"/>
</g>
<defs>
<filter id="filter0_ii_896_17144" x="27.9216" y="118.13" width="65.143" height="88.6739" filterUnits="userSpaceOnUse" color-interpolation-filters="sRGB">
<feFlood flood-opacity="0" result="BackgroundImageFix"/>
<feBlend mode="normal" in="SourceGraphic" in2="BackgroundImageFix" result="shape"/>
<feColorMatrix in="SourceAlpha" type="matrix" values="0 0 0 0 0 0 0 0 0 0 0 0 0 0 0 0 0 0 127 0" result="hardAlpha"/>
<feOffset dx="-5.72687" dy="-15.2716"/>
<feGaussianBlur stdDeviation="3.81791"/>
<feComposite in2="hardAlpha" operator="arithmetic" k2="-1" k3="1"/>
<feColorMatrix type="matrix" values="0 0 0 0 0 0 0 0 0 0 0 0 0 0 0 0 0 0 0.2 0"/>
<feBlend mode="normal" in2="shape" result="effect1_innerShadow_896_17144"/>
<feColorMatrix in="SourceAlpha" type="matrix" values="0 0 0 0 0 0 0 0 0 0 0 0 0 0 0 0 0 0 127 0" result="hardAlpha"/>
<feOffset dx="5.72687" dy="2.86343"/>
<feGaussianBlur stdDeviation="1.43172"/>
<feComposite in2="hardAlpha" operator="arithmetic" k2="-1" k3="1"/>
<feColorMatrix type="matrix" values="0 0 0 0 1 0 0 0 0 1 0 0 0 0 1 0 0 0 0.3 0"/>
<feBlend mode="normal" in2="effect1_innerShadow_896_17144" result="effect2_innerShadow_896_17144"/>
</filter>
<filter id="filter1_ii_896_17144" x="40.9928" y="140.596" width="18.6974" height="18.6972" filterUnits="userSpaceOnUse" color-interpolation-filters="sRGB">
<feFlood flood-opacity="0" result="BackgroundImageFix"/>
<feBlend mode="normal" in="SourceGraphic" in2="BackgroundImageFix" result="shape"/>
<feColorMatrix in="SourceAlpha" type="matrix" values="0 0 0 0 0 0 0 0 0 0 0 0 0 0 0 0 0 0 127 0" result="hardAlpha"/>
<feOffset dx="-0.954478" dy="-0.954478"/>
<feGaussianBlur stdDeviation="0.954478"/>
<feComposite in2="hardAlpha" operator="arithmetic" k2="-1" k3="1"/>
<feColorMatrix type="matrix" values="0 0 0 0 0 0 0 0 0 0 0 0 0 0 0 0 0 0 0.2 0"/>
<feBlend mode="normal" in2="shape" result="effect1_innerShadow_896_17144"/>
<feColorMatrix in="SourceAlpha" type="matrix" values="0 0 0 0 0 0 0 0 0 0 0 0 0 0 0 0 0 0 127 0" result="hardAlpha"/>
<feOffset dx="1.90896" dy="1.90896"/>
<feGaussianBlur stdDeviation="1.90896"/>
<feComposite in2="hardAlpha" operator="arithmetic" k2="-1" k3="1"/>
<feColorMatrix type="matrix" values="0 0 0 0 1 0 0 0 0 1 0 0 0 0 1 0 0 0 0.25 0"/>
<feBlend mode="normal" in2="effect1_innerShadow_896_17144" result="effect2_innerShadow_896_17144"/>
</filter>
<filter id="filter2_ii_896_17144" x="65.1119" y="140.596" width="18.6974" height="18.6972" filterUnits="userSpaceOnUse" color-interpolation-filters="sRGB">
<feFlood flood-opacity="0" result="BackgroundImageFix"/>
<feBlend mode="normal" in="SourceGraphic" in2="BackgroundImageFix" result="shape"/>
<feColorMatrix in="SourceAlpha" type="matrix" values="0 0 0 0 0 0 0 0 0 0 0 0 0 0 0 0 0 0 127 0" result="hardAlpha"/>
<feOffset dx="-0.954478" dy="-0.954478"/>
<feGaussianBlur stdDeviation="0.954478"/>
<feComposite in2="hardAlpha" operator="arithmetic" k2="-1" k3="1"/>
<feColorMatrix type="matrix" values="0 0 0 0 0 0 0 0 0 0 0 0 0 0 0 0 0 0 0.2 0"/>
<feBlend mode="normal" in2="shape" result="effect1_innerShadow_896_17144"/>
<feColorMatrix in="SourceAlpha" type="matrix" values="0 0 0 0 0 0 0 0 0 0 0 0 0 0 0 0 0 0 127 0" result="hardAlpha"/>
<feOffset dx="1.90896" dy="1.90896"/>
<feGaussianBlur stdDeviation="1.90896"/>
<feComposite in2="hardAlpha" operator="arithmetic" k2="-1" k3="1"/>
<feColorMatrix type="matrix" values="0 0 0 0 1 0 0 0 0 1 0 0 0 0 1 0 0 0 0.25 0"/>
<feBlend mode="normal" in2="effect1_innerShadow_896_17144" result="effect2_innerShadow_896_17144"/>
</filter>
<linearGradient id="paint0_linear_896_17144" x1="40.6989" y1="125.766" x2="71.1628" y2="207.047" gradientUnits="userSpaceOnUse">
<stop stop-color="#FB8DED"/>
<stop offset="1" stop-color="#FAFEFD"/>
</linearGradient>
<linearGradient id="paint1_linear_896_17144" x1="73.6602" y1="210.401" x2="346.388" y2="224.555" gradientUnits="userSpaceOnUse">
<stop stop-color="#93A4F2" stop-opacity="0.35"/>
<stop offset="0.275553" stop-color="#FF6B69" stop-opacity="0.8"/>
<stop offset="0.644231" stop-color="#FFA3FE" stop-opacity="0.8"/>
<stop offset="0.853365" stop-color="#FEFDC6" stop-opacity="0.7"/>
<stop offset="1" stop-color="#FEFDC6" stop-opacity="0"/>
</linearGradient>
<linearGradient id="paint2_linear_896_17144" x1="73.6602" y1="151" x2="352.66" y2="151" gradientUnits="userSpaceOnUse">
<stop stop-color="#FFCDD6"/>
<stop offset="1" stop-color="#FFCDD6" stop-opacity="0"/>
</linearGradient>
<clipPath id="clip0_896_17144">
<rect x="0.5" width="327" height="218" rx="10" fill="white"/>
</clipPath>
<clipPath id="clip1_896_17144">
<rect x="16.5" y="95.0422" width="91.456" height="91.456" rx="45.728" fill="white"/>
</clipPath>
</defs>
</svg>
