<svg width="44" height="44" viewBox="0 0 44 44" fill="none" xmlns="http://www.w3.org/2000/svg">
<path d="M41.9026 16.7611H39.8126V20.9549H37.7089V18.8649H35.6189V16.7611H39.8126V14.6711H35.6189V12.5674H33.5289V20.9549H31.4251V23.0449H12.5739V20.9549H10.4701V12.5674H8.387V14.6711H4.18637V16.7611H8.387V18.8649H6.29012V20.9549H4.18637V16.7611H2.09637V23.0449H4.18637V25.1486H8.387V39.8061H10.477V41.9099H12.5807V43.9999H31.432V41.9099H33.5357V39.8061H35.6257V25.1486H39.8195V23.0449H41.9095L41.9026 16.7611ZM33.5289 29.3424H10.4701V27.2386H33.5289V29.3424Z" fill="#1F2021"/>
<path d="M33.5293 10.4775H31.4256V12.5675H33.5293V10.4775Z" fill="#1F2021"/>
<path d="M33.5293 2.10376H31.4256V6.28376H33.5293V2.10376Z" fill="#1F2021"/>
<path d="M31.4256 6.28369H29.3356V10.4774H31.4256V6.28369Z" fill="#1F2021"/>
<path d="M31.426 0H27.2322V2.10375H31.426V0Z" fill="#1F2021"/>
<path d="M29.336 14.6716H27.2322V16.7616H29.336V14.6716Z" fill="#1F2021"/>
<path d="M27.2314 2.10376H25.1414V6.28376H27.2314V2.10376Z" fill="#1F2021"/>
<path d="M25.1418 6.28369H23.0518V8.38744H25.1418V6.28369Z" fill="#1F2021"/>
<path d="M20.9485 20.955H23.0522V18.865H25.1422V16.7612H18.8585V18.865H20.9485V20.955Z" fill="#1F2021"/>
<path d="M23.0522 8.38794H20.9485V10.4779H23.0522V8.38794Z" fill="#1F2021"/>
<path d="M20.9485 6.28369H18.8585V8.38744H20.9485V6.28369Z" fill="#1F2021"/>
<path d="M18.8585 2.10376H16.7547V6.28376H18.8585V2.10376Z" fill="#1F2021"/>
<path d="M16.7543 14.6716H14.6643V16.7616H16.7543V14.6716Z" fill="#1F2021"/>
<path d="M16.7543 0H12.5743V2.10375H16.7543V0Z" fill="#1F2021"/>
<path d="M14.6643 6.28369H12.5743V10.4774H14.6643V6.28369Z" fill="#1F2021"/>
<path d="M12.5747 10.4775H10.471V12.5675H12.5747V10.4775Z" fill="#1F2021"/>
<path d="M12.5747 2.10376H10.471V6.28376H12.5747V2.10376Z" fill="#1F2021"/>
</svg>
